<?xml version="1.0" standalone="no"?>
<!DOCTYPE svg PUBLIC "-//W3C//DTD SVG 1.1//EN" "http://www.w3.org/Graphics/SVG/1.1/DTD/svg11.dtd" >
<svg xmlns="http://www.w3.org/2000/svg">
<metadata>Generated by IcoMoon</metadata>
<defs>
<font id="icomoon" horiz-adv-x="1024">
<font-face units-per-em="1024" ascent="960" descent="-64" />
<missing-glyph horiz-adv-x="1024" />
<glyph unicode="&#x20;" horiz-adv-x="512" d="" />
<glyph unicode="&#xe900;" glyph-name="info_icon" d="M489.832 932.539c268.351 12.185 492.366-193.364 506.581-461.746l0.56-14.437-30.802-0.703 30.806 0.514c4.519-256.209-191.732-472.437-448.207-491.806l-14.31-0.873c-269.76-12.539-494.857 195.64-507.006 463.081-12.132 267.010 194.309 493.795 462.378 505.969zM942.558 468.597c-13 238.669-211.885 420.927-450.281 410.102-238.296-10.822-421.766-212.372-410.983-449.684 10.805-237.85 210.827-422.839 450.664-411.691 229.687 10.678 408.241 198.534 411.164 424.554l-0.032 13.338-0.532 13.38zM508.737 577.5c12.544 0 22.579 3.667 30.105 11 8.105 7.719 12.158 18.237 12.158 31.553 0 13.509-3.956 24.026-11.868 31.553-7.719 7.14-17.465 10.711-29.237 10.711-12.351 0-22.579-3.667-30.684-11-8.684-7.719-13.026-18.526-13.026-32.421 0-12.351 3.763-22.289 11.289-29.816 7.526-7.719 17.947-11.579 31.263-11.579zM545.211 259.368v281.658h-73.237v-281.658h73.237z" />
<glyph unicode="&#xe901;" glyph-name="Group-31" d="M407.273 688.873l48.873-50.036 222.255 222.255 246.691-246.691-222.255-222.255 50.036-48.873 271.127 271.127-345.6 345.6zM634.182 224.582l-48.873 50.036-239.709-239.709-246.691 246.691 239.709 239.709-50.036 48.873-288.582-288.582 345.6-345.6zM326.168 311.413l323.366 323.366 49.369-49.369-323.366-323.366z" />
<glyph unicode="&#xe902;" glyph-name="dots" horiz-adv-x="5803" d="M3610.776 296c-83.951 0-152 68.048-152 152s68.048 152 152 152c83.951 0 152-68.048 152-152s-68.048-152-152-152zM2901.453 296c-83.951 0-152 68.048-152 152s68.048 152 152 152c83.951 0 152-68.048 152-152s-68.048-152-152-152zM2192.12 296c-83.951 0-152 68.048-152 152s68.048 152 152 152c83.951 0 152-68.048 152-152s-68.048-152-152-152z" />
<glyph unicode="&#xe903;" glyph-name="training" horiz-adv-x="1345" d="M305.842 410.788v-266.186c91.615-79.006 211.808-127.125 343.239-127.125 0.985 0 1.97 0.003 2.954 0.008l-0.152-0.001h20.1c5.631-0.213 12.245-0.334 18.887-0.334 126.991 0 243.619 44.374 335.223 118.461l-1.006-0.788 13.581 11.408v265.099h81.485v-299.866l-13.038-12.494c-116.086-101.111-268.86-162.752-436.032-162.752-160.351 0-307.456 56.715-422.35 151.179l1.155-0.921-13.581 12.494-12.494 12.494v299.866zM672.526 959.457l671.983-300.41-671.983-304.212-672.526 302.582 672.526 302.039zM672.526 870.366l-473.702-212.949 473.702-212.949 473.159 212.949-473.159 213.492z" />
<glyph unicode="&#xe904;" glyph-name="home" horiz-adv-x="1279" d="M1031.813 483.418c19.579-0.319 35.681-14.806 38.516-33.637l0.027-0.218v-513.042h-860.452v507.833c0.592 21.113 17.848 38.003 39.050 38.003 19.361 0 35.431-14.084 38.526-32.566l0.032-0.229v-434.914h703.674v429.705c-0.001 0.085-0.001 0.185-0.001 0.286 0 19.635 14.682 35.841 33.667 38.238l0.19 0.020zM641.172 959.479l618.775-377.099c11.27-7.107 18.647-19.489 18.647-33.594 0-6.765-1.697-13.133-4.688-18.702l0.104 0.211c-6.657-12.115-19.332-20.189-33.893-20.189-6.662 0-12.928 1.69-18.395 4.665l0.202-0.101-4.688 2.604-576.065 350.014-579.19-352.619c-5.943-3.933-13.237-6.274-21.078-6.274-12.668 0-23.909 6.112-30.934 15.547l-0.073 0.102-3.125 3.646c-4.153 6.005-6.635 13.442-6.635 21.459 0 12.519 6.051 23.625 15.387 30.554l0.102 0.072 4.167 3.125 619.817 376.578z" />
<glyph unicode="&#xe905;" glyph-name="bookmark" horiz-adv-x="732" d="M629.478 960h-529.933c-0.003 0-0.007 0-0.011 0-54.463 0-98.71-43.737-99.534-98.004l-0.001-0.077v-895.909c2.996-17.453 18.015-30.566 36.097-30.566 2.246 0 4.445 0.202 6.579 0.59l-0.223-0.034c5.611 1.057 10.556 3.371 14.711 6.642l-0.072-0.055 308.152 219.585 308.152-219.585c5.975-4.24 13.416-6.778 21.45-6.778 12.126 0 22.901 5.781 29.72 14.738l0.067 0.091c4.127 6.070 6.589 13.562 6.589 21.629 0 0.116-0.001 0.232-0.002 0.348v-0.018 878.342c0.432 3.459 0.679 7.461 0.679 11.522 0 50.541-38.227 92.153-87.345 97.501l-0.436 0.039h-14.639zM103.205 886.805h532.129c17.567 0 22.69-9.515 23.422-35.134v-805.147l-271.554 195.431h-5.856c-5.249 3.083-11.561 4.903-18.299 4.903s-13.050-1.821-18.471-4.997l0.173 0.093-271.554-195.431v805.147c0 22.69 5.856 31.474 24.154 34.402z" />
<glyph unicode="&#xe906;" glyph-name="big-imageupload" horiz-adv-x="1463" d="M1462.857 960v-1024h-1462.857v1024zM1389.714 886.857h-1316.571v-877.714h150.674l-3.413 3.413 451.535 363.764 186.27-168.716 330.606 317.44 200.899-216.015v577.829zM1185.89 420.206l-326.217-313.539-190.659 170.667-336.945-271.604h1057.646v192.61l-201.387 216.503zM413.989 764.952c0.145 0 0.316 0.001 0.487 0.001 94.257 0 170.667-76.41 170.667-170.667s-76.41-170.667-170.667-170.667c-94.085 0-170.388 76.132-170.666 170.152v0.027c0 0.145-0.001 0.317-0.001 0.488 0 94.085 76.133 170.389 170.153 170.666h0.026zM413.989 691.81c-53.861 0-97.524-43.663-97.524-97.524s43.663-97.524 97.524-97.524c53.861 0 97.524 43.663 97.524 97.524v0c0 53.861-43.663 97.524-97.524 97.524v0z" />
<glyph unicode="&#xe907;" glyph-name="view-tree" horiz-adv-x="903" d="M903.004 635.692v247.942h-632.748v-91.243h-195.874v165.625h-74.383v-892.591c0.301-18.369 13.873-33.479 31.53-36.174l0.207-0.026h238.52v-94.218h632.748v247.942h-632.748v-79.837h-195.874v272.736h195.874v-91.738h632.748v247.942h-632.748v-82.317h-195.874v268.273h195.874v-84.3zM347.119 110.055h483.983v-99.177h-483.983zM347.119 457.174h483.983v-99.177h-483.983zM347.119 806.772h483.983v-99.177h-483.983z" />
<glyph unicode="&#xe908;" glyph-name="view-lab" horiz-adv-x="788" d="M526.215 700.511h4.135v183.503h86.324v78.054h-445.060v-77.537h85.807v-183.503h4.135c-153.748-55.996-261.557-200.904-261.557-370.992 0-217.537 176.349-393.886 393.886-393.886s393.886 176.349 393.886 393.886c0 170.088-107.808 314.996-258.82 370.118l-2.737 0.874zM334.958 640.549v241.914h117.856v-241.914c95.461-18.546 174.167-78.061 218.346-159.107l0.824-1.652h-555.679c45.368 82.987 124.671 142.582 218.751 160.448l1.97 0.311zM283.267 707.748l12.406 3.618zM500.886 707.748l-12.923 3.618zM391.818 13.537c-174.597 0.294-316.056 141.753-316.349 316.321v0.028c0.459 25.897 3.825 50.784 9.786 74.643l-0.481-2.276h614.090c5.742-21.671 9.126-46.584 9.304-72.258l0.001-0.109c-0.287-173.875-140.574-314.888-314.143-316.348l-0.138-0.001z" />
<glyph unicode="&#xe909;" glyph-name="jupyter" horiz-adv-x="1109" d="M555.367 806.666c208.207 0 391.191-74.565 486.776-184.975-75.317 199.098-264.372 338.095-485.891 338.095s-410.574-138.997-484.706-334.533l-1.185-3.562c93.815 110.631 275.914 184.975 485.006 184.975zM1100.335 534.513c-11.073-0.561-21.096-4.642-29.077-11.135l0.092 0.072c-8.108-6.563-14.145-15.392-17.165-25.521l-0.094-0.366h-1.549v33.189h-27.658c1.549-15.931 1.549-32.968 1.549-52.882v-115.941h30.534v90.054c0.003 5.087 0.486 10.059 1.406 14.876l-0.079-0.494c0.939 10.879 5.849 20.46 13.253 27.416l0.022 0.021c7.375 6.942 17.17 11.387 27.993 11.944l0.107 0.004h10.621v28.764c-1.497 0.268-3.22 0.421-4.978 0.421s-3.482-0.153-5.156-0.447l0.178 0.026zM803.402 507.298v23.232h-44.252v48.456l-30.092-7.080v-41.155h-26.994v-23.232h26.33v-92.487c-0.245-2.082-0.385-4.493-0.385-6.937 0-14.056 4.631-27.030 12.451-37.479l-0.117 0.163c4.256-4.37 9.423-7.831 15.196-10.078l0.292-0.1c4.455-1.755 9.615-2.772 15.013-2.772 1.102 0 2.194 0.042 3.274 0.126l-0.143-0.009c0.837-0.032 1.819-0.051 2.805-0.051 8.814 0 17.284 1.477 25.174 4.196l-0.543-0.163-1.328 23.232c-4.75-1.292-10.203-2.034-15.83-2.034-0.813 0-1.623 0.016-2.429 0.046l0.116-0.004c-17.037 0-22.126 11.948-22.126 32.747v91.16zM979.305 453.974c0 30.977-13.939 79.654-69.476 79.654-49.341 0-79.654-40.27-79.654-91.16-0.217-2.14-0.341-4.625-0.341-7.138 0-9.439 1.749-18.469 4.939-26.785l-0.173 0.512c4.337-11.182 10.732-20.704 18.788-28.524l0.020-0.019c14.268-15.056 34.407-24.425 56.735-24.425 1.291 0 2.574 0.031 3.849 0.093l-0.18-0.007c0.99-0.025 2.156-0.039 3.326-0.039 19.222 0 37.547 3.836 54.253 10.783l-0.936-0.345-5.31 23.232c-12.812-5.617-27.745-8.886-43.442-8.886-0.985 0-1.968 0.013-2.947 0.038l0.145-0.003c-1.109-0.081-2.404-0.127-3.708-0.127-6.607 0-12.938 1.182-18.793 3.346l0.376-0.122c-15.009 5.66-26.645 17.295-32.179 31.928l-0.125 0.376c-2.046 5.46-3.23 11.769-3.23 18.355 0 1.327 0.048 2.643 0.143 3.946l-0.010-0.175h118.818c-0.664 6.195-0.664 10.621-0.885 15.488zM951.205 463.71h-90.496c0.504 13.345 6.072 25.3 14.826 34.075l-0.001-0.001c8.504 8.987 20.182 14.893 33.233 15.92l0.178 0.011c6.589-0.114 12.809-1.569 18.44-4.102l-0.296 0.119c11.423-5.451 19.995-15.324 23.594-27.344l0.081-0.313c0.78-3.061 1.228-6.574 1.228-10.192 0-2.891-0.286-5.715-0.831-8.446l0.046 0.274zM553.376 325.421c-7.692-6.382-16.75-11.44-26.638-14.662l-0.578-0.163 7.744-26.109c14.735 3.505 27.51 10.457 37.899 19.971l-0.064-0.057c22.126 18.143 35.402 48.014 58.634 105.763l46.022 120.366h-32.525l-33.853-99.125c-4.204-11.948-7.744-25.003-10.842-35.181-2.876 9.957-7.080 23.454-10.842 34.517l-37.393 99.789h-34.074l63.060-154.883c1.045-2.331 1.755-5.037 1.986-7.877l0.006-0.088c-0.525-2.829-1.369-5.351-2.512-7.7l0.078 0.177c-6.142-13.823-14.995-25.441-25.96-34.617l-0.148-0.121zM335.433 291.789h31.198v92.487c5.626-8.445 13.070-15.252 21.805-19.976l0.321-0.159c7.884-4.079 17.211-6.471 27.095-6.471 0.898 0 1.792 0.020 2.68 0.059l-0.126-0.004c40.27 0 77.663 30.092 77.663 90.717 0 51.333-31.198 85.85-72.353 85.85-0.842 0.038-1.829 0.059-2.822 0.059-11.689 0-22.683-2.972-32.27-8.201l0.353 0.176c-10.786-6.006-19.545-14.481-25.715-24.695l-0.172-0.307-1.328 28.985h-27.658c1.328-15.931 1.328-33.411 1.328-55.094v-183.426zM366.631 459.063c0.591 13.469 6.133 25.54 14.838 34.531l-0.014-0.014c8.755 9.024 20.626 14.983 33.872 16.138l0.202 0.014c32.525 0 50.669-28.985 50.669-62.617 0-38.721-19.25-65.272-51.997-65.272-0.385-0.011-0.838-0.017-1.292-0.017-22.155 0-40.79 15.076-46.204 35.528l-0.075 0.333c-0.839 3.722-1.323 7.999-1.328 12.387v0.003zM76.557 378.303v153.113h-31.198v-142.271c0-40.491-3.098-53.545-11.506-63.281-8.885-8.096-20.752-13.055-33.778-13.055-0.026 0-0.053 0-0.079 0h0.004l3.319-22.126c0.363-0.006 0.791-0.010 1.22-0.010 19.732 0 37.759 7.296 51.532 19.338l-0.091-0.078c7.716 9.102 13.651 19.979 17.106 31.91l0.153 0.616c2.41 7.902 3.798 16.984 3.798 26.39 0 3.33-0.174 6.619-0.513 9.859l0.034-0.405zM555.367 89.113c-208.207 0-391.191 74.787-486.776 185.196 75.133-199.309 264.256-338.511 485.891-338.511s410.758 139.202 484.709 334.946l1.182 3.565c-93.594-110.41-275.471-185.196-485.006-185.196zM133.642 530.309v-98.683c0-59.519 31.862-74.123 58.856-74.123 0.265-0.004 0.577-0.006 0.89-0.006 23.394 0 43.873 12.476 55.149 31.137l0.162 0.288 1.77-27.436h27.658c-1.049 11.139-1.647 24.086-1.647 37.173 0 3.19 0.036 6.371 0.106 9.544l-0.008-0.473v122.8h-30.977v-103.551c0.015-0.406 0.023-0.882 0.023-1.361 0-5.58-1.148-10.893-3.22-15.714l0.099 0.259c-2.406-5.563-5.61-10.327-9.529-14.397l0.014 0.015c-7.971-7.799-18.893-12.612-30.938-12.612-0.014 0-0.027 0-0.041 0h0.002c-28.1 0-38.057 22.126-38.057 53.767v92.487z" />
<glyph unicode="&#xe90a;" glyph-name="dataiku" horiz-adv-x="1028" d="M660.675 283.639c119.263 2.999 201.617 61.362 250.060 168.398 19.963 42.684 31.612 92.68 31.612 145.396 0 14.855-0.925 29.494-2.721 43.863l0.175-1.715c-11.995 101.039-27.682 201.617 87.429 266.9-40.6 11.073-69.205-34.602-100.347 4.844-22.167 29.95-57.374 49.154-97.066 49.154-16.054 0-31.374-3.142-45.379-8.843l0.805 0.29c-51.175-16.991-88.191-62.629-92.247-117.437l-0.026-0.442c-2.063-21.973-10.423-41.674-23.233-57.653l0.165 0.213q-131.028-159.863-261.594-320.649-204.385-252.597-408.308-505.656c-2.538-11.303 1.845-15.917 13.38-13.841 60.372 54.599 116.074 110.228 168.929 168.487l1.776 1.987c76.356 92.273 165.861 139.794 286.969 118.34 3.7-0.385 7.995-0.604 12.342-0.604s8.641 0.219 12.874 0.648l-0.533-0.044c11.303 0 20.531 5.536 19.147 17.071-6.69 49.597 27.913 40.831 56.287 40.831s59.977-0.231 89.505 0.461zM840.607 883.413c1.55 0.238 3.339 0.374 5.159 0.374 19.747 0 35.756-16.008 35.756-35.756 0-0.862-0.031-1.717-0.091-2.564l0.006 0.114c0-23.068-14.764-34.141-34.372-40.139-23.068 3.922-42.446 14.072-42.446 39.908-0.141 1.182-0.222 2.552-0.222 3.94 0 19.365 15.699 35.064 35.064 35.064 0.403 0 0.804-0.007 1.203-0.020l-0.058 0.002zM992.396 224.815q-192.851-1.615-385.471 0c-28.605 0-31.142-13.61-31.373-36.448s5.767-35.525 32.988-34.833c62.515 1.615 125.030 0 187.776 0s128.26 0 192.62 0c25.606 0 35.064 7.843 34.141 33.68-0.923 21.915-1.153 37.832-30.681 37.601z" />
<glyph unicode="&#xe90b;" glyph-name="icon_checkmark1" horiz-adv-x="1376" d="M1373.12 943.872c-10.048 9.984-23.904 16.16-39.2 16.16s-29.152-6.176-39.2-16.16v0l-844.448-849.984-355.232 357.44-4.992 4.448c-9.312 7.328-21.216 11.744-34.176 11.744-15.296 0-29.152-6.176-39.232-16.192v0c-9.984-10.048-16.16-23.904-16.16-39.2s6.176-29.152 16.16-39.2v0l433.6-436.96 927.84 934.496c7.168 9.28 11.488 21.056 11.488 33.856 0 15.456-6.304 29.44-16.512 39.52v0z" />
<glyph unicode="&#xe90c;" glyph-name="icon_close1" d="M609.376 440.672c-1.76 2.048-2.816 4.736-2.816 7.68s1.056 5.632 2.848 7.68v-0.032l395.776 395.072c11.552 11.52 18.72 27.424 18.72 45.024s-7.168 33.504-18.72 45.024v0c-11.296 11.616-27.104 18.848-44.576 18.848-0.032 0-0.064 0-0.096 0v0c-0.064 0-0.128 0-0.224 0-17.664 0-33.632-7.2-45.152-18.848v0l-395.776-394.368c-1.92-2.080-4.64-3.36-7.68-3.36s-5.76 1.28-7.68 3.36v0l-395.072 394.368c-11.52 11.52-27.424 18.656-45.024 18.656-35.168 0-63.68-28.512-63.68-63.68 0-17.568 7.136-33.504 18.656-45.024v0l394.368-395.072c2.080-1.92 3.36-4.64 3.36-7.68s-1.28-5.76-3.36-7.68v0l-394.368-395.072c-11.52-11.52-18.656-27.456-18.656-45.024 0-35.168 28.512-63.68 63.68-63.68 17.568 0 33.504 7.136 45.024 18.656v0l395.072 394.368c1.92 2.048 4.64 3.36 7.68 3.36s5.76-1.28 7.68-3.36v0l395.072-394.368c11.2-11.776 27.008-19.136 44.544-19.136 6.016 0 11.84 0.864 17.312 2.464l-0.448-0.096c22.4 5.664 39.68 22.976 45.28 44.928l0.096 0.416c1.408 4.928 2.208 10.592 2.208 16.448 0 17.632-7.264 33.536-18.944 44.96v0z" />
<glyph unicode="&#xe90d;" glyph-name="alert" horiz-adv-x="1035" d="M574.761 85.589c0-14.157-20.763-30.201-49.076-30.201h-18.404c-28.313 0-49.076 16.044-49.076 30.201v38.223h117.029v-38.223zM222.26 557.006c0 157.611 118.444 285.965 264.258 285.965h59.93c145.814 0 264.258-128.354 264.258-285.965v-335.041h-588.446v335.041zM1034.853 125.7l-1.888 96.265h-127.882v335.041c0 209.519-160.914 380.343-358.636 380.343h-59.93c-197.722 0-358.636-170.824-358.636-380.343v-335.041h-80.693l-49.076-2.359 1.888-96.265h363.827v-38.223c0-68.896 64.177-124.579 143.454-124.579h18.404c79.277 0 143.454 56.155 143.454 124.579v38.223h316.638l49.076 2.359z" />
<glyph unicode="&#xe90e;" glyph-name="calendar" horiz-adv-x="931" d="M837.818 866.909h-46.545v93.091h-93.091v-93.091h-465.455v93.091h-93.091v-93.091h-46.545c-51.2 0-93.091-41.891-93.091-93.091v-744.727c0-51.2 41.891-93.091 93.091-93.091h744.727c51.2 0 93.091 41.891 93.091 93.091v744.727c0 51.2-41.891 93.091-93.091 93.091zM837.818 29.091h-744.727v512h744.727v-512zM837.818 634.182h-744.727v139.636h744.727v-139.636z" />
<glyph unicode="&#xe90f;" glyph-name="icon_diagramview" d="M1024 89.6v-51.2h-1024v51.2h1024zM307.2 857.6v-665.6h-102.4v665.6h102.4zM819.2 652.8v-460.8h-102.4v460.8h102.4zM563.2 499.2v-307.2h-102.4v307.2h102.4z" />
<glyph unicode="&#xe910;" glyph-name="icon_docoument" horiz-adv-x="819" d="M563.2 960l256-256v-768h-819.2v1024h563.2zM512 908.8h-460.8v-921.6h716.8v665.6h-256v256zM665.6 243.2v-102.4h-512v102.4h512zM665.6 448v-102.4h-512v102.4h512zM563.2 887.552v-183.552h183.603l-183.603 183.552z" />
<glyph unicode="&#xe911;" glyph-name="icon_download" d="M1024-64h-1024v665.6h307.2v-51.2h-256v-563.2h921.6v563.2h-256v51.2h307.2v-665.6zM716.8 448l-204.8-256-204.8 256h153.6v512h102.4v-512h153.6z" />
<glyph unicode="&#xe912;" glyph-name="icon_arrow_sort" d="M503.543 172.952l-486.453 540.503c-4.204 4.671-3.825 11.865 0.846 16.068 2.089 1.88 4.801 2.921 7.611 2.921h972.906c6.284 0 11.378-5.094 11.378-11.378 0-2.811-1.040-5.522-2.921-7.611l-486.453-540.503c-4.204-4.671-11.398-5.049-16.068-0.846-0.297 0.267-0.579 0.549-0.846 0.846z" />
<glyph unicode="&#xe913;" glyph-name="navigation_arrow_default" d="M628.145 447.021l-340.674-352.663c-22.669-23.466-22.022-60.866 1.444-83.535s60.866-22.022 83.535 1.444l380.329 393.714c22.118 22.897 22.116 59.202-0.006 82.096l-381.502 394.819c-22.672 23.463-60.072 24.105-83.535 1.433s-24.105-60.072-1.433-83.535l341.841-353.774z" />
<glyph unicode="&#xe914;" glyph-name="navigation_arrow_unfold" d="M130.57 706.606c-25.004 24.984-65.526 24.967-90.51-0.036s-24.967-65.526 0.036-90.51l427.383-427.042c24.987-24.967 65.476-24.97 90.466-0.007l426.667 426.193c25.007 24.98 25.030 65.502 0.050 90.51s-65.502 25.030-90.51 0.050l-381.43-381.007-382.153 381.848z" />
<glyph unicode="&#xe915;" glyph-name="add-member" d="M536 953.143l-0.023-481.12 481.166-0.023v-48l-481.166 0.023 0.023-481.166h-48l-0.023 481.166-481.12-0.023v48l481.12 0.023 0.023 481.12h48z" />
<glyph unicode="&#xe916;" glyph-name="add" horiz-adv-x="819" d="M665.6 345.6v-153.6h153.6v-102.4h-153.6v-153.6h-102.4v153.6h-153.6v102.4h153.6v153.6h102.4zM819.2 960v-614.4h-51.2v563.2h-716.8v-870.4h307.2v-51.2h-358.4v972.8h819.2z" />
<glyph unicode="&#xe917;" glyph-name="textbutton_arrow_back" d="M769.635 31.95c15.785-15.785 15.785-41.379 0-57.164s-41.379-15.785-57.164 0l-458.105 458.105c-15.785 15.785-15.785 41.379 0 57.164l458.105 458.105c15.785 15.785 41.379 15.785 57.164 0s15.785-41.379 0-57.164l-429.523-429.523 429.523-429.523z" />
<glyph unicode="&#xe918;" glyph-name="arrow-big_down" horiz-adv-x="1877" d="M1746.745 919.922l90.51-90.51-898.588-898.588-898.588 898.588 90.51 90.51 808.078-808.050z" />
<glyph unicode="&#xe919;" glyph-name="arrow-big_left" horiz-adv-x="559" d="M549.027-5.112l-49.369-49.369-490.139 490.139 490.139 490.139 49.369-49.369-440.754-440.77z" />
<glyph unicode="&#xe91a;" glyph-name="arrow-big_right" horiz-adv-x="559" d="M9.519 876.428l49.369 49.369 490.139-490.139-490.139-490.139-49.369 49.369 440.754 440.77z" />
<glyph unicode="&#xe91b;" glyph-name="arrow-big_up" horiz-adv-x="1877" d="M130.588-69.176l-90.51 90.51 898.588 898.588 898.588-898.588-90.51-90.51-808.078 808.050z" />
<glyph unicode="&#xe91c;" glyph-name="arrow-small_down" horiz-adv-x="1820" d="M1646.327 906.562l120.68-120.68-856.784-856.784-856.784 856.784 120.68 120.68 736.105-736.066z" />
<glyph unicode="&#xe91d;" glyph-name="arrow-small_left" horiz-adv-x="640" d="M594.912 48.971l-67.882-67.882-481.941 481.941 481.941 481.941 67.882-67.882-414.037-414.059z" />
<glyph unicode="&#xe91e;" glyph-name="arrow-small_right" horiz-adv-x="640" d="M45.088 877.088l67.882 67.882 481.941-481.941-481.941-481.941-67.882 67.882 414.037 414.059z" />
<glyph unicode="&#xe91f;" glyph-name="arrow-small_up" horiz-adv-x="1820" d="M174.118-70.902l-120.68 120.68 856.784 856.784 856.784-856.784-120.68-120.68-736.105 736.066z" />
<glyph unicode="&#xe920;" glyph-name="burger" horiz-adv-x="1138" d="M1137.778 49.778v-113.778h-1137.778v113.778h1137.778zM1137.778 504.889v-113.778h-1137.778v113.778h1137.778zM1137.778 960v-113.778h-1137.778v113.778h1137.778z" />
<glyph unicode="&#xe921;" glyph-name="textbutton_arrow_next" d="M254.365 31.95c-15.785-15.785-15.785-41.379 0-57.164s41.379-15.785 57.164 0l458.105 458.105c15.785 15.785 15.785 41.379 0 57.164l-458.105 458.105c-15.785 15.785-41.379 15.785-57.164 0s-15.785-41.379 0-57.164l429.523-429.523-429.523-429.523z" />
<glyph unicode="&#xe922;" glyph-name="close-big" d="M923.842 948.155l89.6-89.6-411.908-411.84 403.721-403.657-89.6-89.6-403.657 403.657-403.653-403.657-89.6 89.6 403.653 403.657-411.84 411.84 89.6 89.6 411.84-411.84 411.844 411.84z" />
<glyph unicode="&#xe923;" glyph-name="icon_copy" horiz-adv-x="819" d="M49.152 812.134h-49.152v-876.134h670.925v49.562h-621.773v826.573zM570.163 960h-434.176v-888.013h683.213v639.795zM769.229 120.73h-584.090v789.709h364.544l219.546-219.136z" />
<glyph unicode="&#xe924;" glyph-name="comparison" horiz-adv-x="967" d="M952.766 290.949l-351.982-351.982-60.34 60.34 291.711 291.642h120.611zM952.889 376.889v-85.333h-938.667v85.333h938.667zM363.36 954.614l60.34-60.34-289.897-289.811 819.086-0.019v-85.333h-938.667v83.532l-2.844-0.010 351.982 351.982z" />
<glyph unicode="&#xe925;" glyph-name="delete" horiz-adv-x="922" d="M614.4 960v-102.4h307.2v-51.2h-51.2v-870.4h-819.2v870.4h-51.2v51.2h307.2v102.4h307.2zM819.2 806.4h-716.8v-819.2h716.8v819.2zM605.615 562.823l72.408-72.408-144.826-144.815 144.826-144.815-72.408-72.408-144.815 144.826-144.815-144.826-72.408 72.408 144.826 144.815-144.826 144.815 72.408 72.408 144.815-144.826 144.815 144.826zM563.2 908.8h-204.8v-51.2h204.8v51.2z" />
<glyph unicode="&#xe926;" glyph-name="unread" horiz-adv-x="1176" d="M588.198 770.172c202.661 0 383.398-113.897 471.628-294.099-31.549-65.237-75.931-121.383-128.869-166.834l75.396-75.396c74.327 65.771 133.147 148.119 170.043 242.231-92.508 234.745-320.836 401.044-588.198 401.044-67.91 0-133.147-10.695-194.64-30.479l88.23-88.23c34.757 6.951 70.049 11.764 106.41 11.764zM530.983 709.214l110.688-110.688c30.479-13.368 55.077-37.966 68.445-68.445l110.688-110.688c4.278 18.181 7.486 37.431 7.486 57.216 0.535 132.612-107.48 240.092-240.092 240.092-19.785 0-38.5-2.674-57.216-7.486zM54.007 884.069l143.307-143.307c-87.16-68.445-156.14-159.348-197.314-264.689 92.508-234.745 320.836-401.044 588.198-401.044 81.278 0 159.348 15.507 231.002 43.848l182.876-182.876 75.396 75.396-948.069 948.604-75.396-75.931zM455.052 483.025l139.563-139.563c-2.139-0.535-4.278-1.069-6.417-1.069-73.792 0-133.681 59.889-133.681 133.681 0 2.674 0.535 4.278 0.535 6.951zM273.245 664.831l93.577-93.577c-12.299-29.41-19.25-61.493-19.25-95.181 0-132.612 108.015-240.627 240.627-240.627 33.688 0 65.771 6.951 94.646 19.25l52.403-52.403c-47.056-12.833-96.251-20.32-147.050-20.32-202.661 0-383.398 113.897-471.628 294.099 37.431 76.466 91.973 139.563 156.675 188.758z" />
<glyph unicode="&#xe927;" glyph-name="read" horiz-adv-x="1473" d="M736.691 816.010c253.823 0 480.188-142.65 590.692-368.345-110.504-225.695-336.869-368.345-590.692-368.345s-480.188 142.65-590.692 368.345c110.504 225.695 336.869 368.345 590.692 368.345zM736.691 949.954c-334.859 0-620.829-208.283-736.691-502.289 115.861-294.007 401.831-502.289 736.691-502.289s620.829 208.283 736.691 502.289c-115.861 294.007-401.831 502.289-736.691 502.289zM736.691 615.095c92.421 0 167.43-75.009 167.43-167.43s-75.009-167.43-167.43-167.43-167.43 75.009-167.43 167.43 75.009 167.43 167.43 167.43zM736.691 749.039c-166.090 0-301.373-135.283-301.373-301.373s135.283-301.373 301.373-301.373 301.373 135.283 301.373 301.373-135.283 301.373-301.373 301.373z" />
<glyph unicode="&#xe928;" glyph-name="solutions1" horiz-adv-x="887" d="M443.314 960l-443.314-256.108v-511.783l443.314-256.108 443.314 256.108v511.783l-443.314 256.108zM803.86 677.024l-351.878-203.24-360.978 207.573 352.311 203.673 360.545-208.007zM65.002 621.122l345.811-199.34v-392.179l-345.811 199.773v391.746zM475.815 29.603v382.646l345.811 199.773v-382.646l-345.811-199.773z" />
<glyph unicode="&#xe929;" glyph-name="portfolio2" horiz-adv-x="1018" d="M449.709 510.291h-449.709v449.709h449.709v-449.709zM75.964 586.255h297.78v297.78h-297.78v-297.78zM1017.923 510.291h-449.709v449.709h449.709v-449.709zM644.684 586.255h297.78v297.78h-297.78v-297.78zM449.709-64h-449.709v449.709h449.709v-449.709zM75.964 11.964h297.78v297.78h-297.78v-297.78zM1017.923-64h-449.709v449.709h449.709v-449.709zM644.684 11.964h297.78v297.78h-297.78v-297.78z" />
<glyph unicode="&#xe92a;" glyph-name="edit-filled" horiz-adv-x="1084" d="M1084.235-3.765v-60.235h-1084.235v60.235h1084.235zM163.063 158.045l42.593 127.778 638.892 638.892 85.186-85.186-638.892-638.892-127.778-42.593z" />
<glyph unicode="&#xe92b;" glyph-name="edit-outline" horiz-adv-x="1078" d="M1077.895 30.316v-80.842h-1077.895v80.842h1077.895zM882.184 941.963l171.492-171.492-570.955-570.955-211.072-39.58 39.58 211.072 570.955 570.955zM882.146 827.673l-496.069-496.069-13.224-70.388 70.312 13.148 496.145 496.145-57.164 57.164z" />
<glyph unicode="&#xe92c;" glyph-name="widgets" horiz-adv-x="1018" d="M0 510.291h449.709v449.709h-449.709v-449.709zM75.964 884.036h297.78v-297.78h-297.78v297.78zM568.72 960v-449.709h449.709v449.709h-449.709zM941.958 586.255h-297.78v297.78h297.78v-297.78zM0-64h449.709v449.709h-449.709v-449.709zM75.964 309.745h297.78v-297.78h-297.78v297.78zM831.557 308.226h-75.964v-109.895h-109.895v-75.964h109.895v-109.389h75.964v109.389h109.389v75.964h-109.389z" />
<glyph unicode="&#xe92d;" glyph-name="expansion-minus" horiz-adv-x="2048" d="M1688.892 536v-176h-1408v176z" />
<glyph unicode="&#xe92e;" glyph-name="expansion-plus" d="M576 960v-448h448v-128h-448v-448h-128v448h-448v128h448v448z" />
<glyph unicode="&#xe92f;" glyph-name="filter1" horiz-adv-x="1078" d="M485.053 205.474v-94.316h552.421v-80.842h-552.421v-94.316h-107.789v94.316h-336.842v80.842h336.842v94.316h107.789zM754.526 582.737v-94.316h282.947v-80.842h-282.947v-94.316h-107.789v94.316h-606.316v80.842h606.316v94.316h107.789zM390.737 960v-94.316h646.737v-80.842h-646.737v-94.316h-107.789v94.316h-242.526v80.842h242.526v94.316h107.789z" />
<glyph unicode="&#xe930;" glyph-name="inline-alert" d="M512 960c282.77 0 512-229.23 512-512s-229.23-512-512-512c-282.77 0-512 229.23-512 512s229.23 512 512 512zM512 301.714c-40.396 0-73.143-32.747-73.143-73.143s32.747-73.143 73.143-73.143c40.396 0 73.143 32.747 73.143 73.143s-32.747 73.143-73.143 73.143zM566.857 740.571h-109.714v-365.714h109.714v365.714z" />
<glyph unicode="&#xe931;" glyph-name="workspace" horiz-adv-x="1136" d="M0 960v-828.335h1136.211v828.335h-1136.211zM1051.63 216.247h-967.048v659.172h967.048v-659.172zM212.581 20.581h711.612v-84.581h-711.612v84.581zM550.344 569.797l-167.471 167.471-59.771-59.771 107.7-107.7-107.7-107.7 59.771-59.771 167.471 167.471zM546.396 479.577h236.828v-84.581h-236.828v84.581z" />
<glyph unicode="&#xe932;" glyph-name="inline-delete" d="M512 960c282.77 0 512-229.23 512-512s-229.23-512-512-512c-282.77 0-512 229.23-512 512s229.23 512 512 512zM662.135 667.429l-150.135-150.089-150.135 150.089-69.293-69.293 150.089-150.135-150.089-150.135 69.293-69.293 150.135 150.162 150.135-150.162 69.293 69.293-150.162 150.135 150.162 150.135-69.293 69.293z" />
<glyph unicode="&#xe933;" glyph-name="list_edit" horiz-adv-x="181" d="M90.353 116.706c49.901 0 90.353-40.452 90.353-90.353s-40.452-90.353-90.353-90.353c-49.901 0-90.353 40.452-90.353 90.353s40.452 90.353 90.353 90.353zM90.353 538.353c49.901 0 90.353-40.452 90.353-90.353s-40.452-90.353-90.353-90.353c-49.901 0-90.353 40.452-90.353 90.353s40.452 90.353 90.353 90.353zM90.353 960c49.901 0 90.353-40.452 90.353-90.353s-40.452-90.353-90.353-90.353c-49.901 0-90.353 40.452-90.353 90.353s40.452 90.353 90.353 90.353z" />
<glyph unicode="&#xe934;" glyph-name="help" d="M512 944.175c-273.687 0-496.175-222.487-496.175-496.175s222.487-496.175 496.175-496.175c273.687 0 496.175 222.487 496.175 496.175s-222.487 496.175-496.175 496.175zM512 21.644c-235.055 0-426.356 191.302-426.356 426.356s191.302 426.356 426.356 426.356c235.055 0 426.356-191.302 426.356-426.356s-191.302-426.356-426.356-426.356zM499.898 266.473c-16.291 0-30.255-5.585-41.891-17.222s-17.222-25.6-17.222-41.891c0-16.291 5.585-30.255 17.222-41.891s25.6-17.222 41.891-17.222c16.291 0 30.255 5.585 41.891 17.222s17.222 25.6 17.222 41.891c0 16.291-5.585 30.255-17.222 41.891-11.636 11.171-25.6 17.222-41.891 17.222zM632.087 682.124c-17.687 11.636-37.236 20.015-59.578 26.065-22.342 5.585-44.684 8.378-68.422 8.378-22.342 0-43.753-3.724-64.233-10.705-20.015-7.913-38.167-17.687-53.993-30.255-15.825-12.102-28.393-26.531-37.702-42.822s-13.964-33.513-13.964-51.2c0-14.429 4.655-25.6 13.964-33.047s20.48-11.171 33.047-11.171c11.636 0 20.945 2.327 27.462 7.447 6.516 4.655 12.102 10.705 16.291 17.687 4.189 6.516 8.378 14.429 11.636 22.342 3.258 8.378 7.913 15.825 13.498 22.807s13.033 13.033 21.876 17.687c8.844 4.655 21.411 7.447 36.771 7.447 21.876 0 39.098-5.585 51.2-16.291 12.567-11.171 18.618-26.531 18.618-46.080 0-12.102-3.258-22.807-9.309-32.116s-13.964-18.153-23.738-26.531c-9.309-8.378-19.549-16.756-30.72-24.669-10.705-7.913-21.411-16.756-30.72-26.065s-17.222-19.084-23.738-30.255c-6.516-11.171-9.309-23.738-9.309-38.167 0-11.636 3.724-22.807 11.636-33.047s19.549-15.825 34.909-15.825c12.102 0 21.411 1.862 27.462 5.585s10.705 8.844 13.964 14.895 6.051 13.033 8.378 20.015c2.327 7.447 5.585 13.964 9.775 20.48 3.724 5.585 9.775 11.636 18.153 17.687 7.913 5.585 16.756 12.102 26.531 19.549 9.775 6.982 20.015 14.895 30.255 23.273 10.705 8.378 20.015 17.687 28.393 27.927s15.36 21.411 20.945 34.444c5.12 12.567 7.913 26.996 7.913 42.822 0 25.6-5.12 47.942-15.825 66.095-9.775 18.618-23.738 33.978-41.425 45.615z" />
<glyph unicode="&#xe935;" glyph-name="list-small" horiz-adv-x="1152" d="M1152 64v-128h-832v128h832zM192 64v-128h-192v128h192zM1152 512v-128h-832v128h832zM192 512v-128h-192v128h192zM1152 960v-128h-832v128h832zM192 960v-128h-192v128h192z" />
<glyph unicode="&#xe936;" glyph-name="reports1" horiz-adv-x="880" d="M211.403 303.122h68.004v-193.663h-68.004v193.663zM334.599 487.423h68.004v-377.963h-68.004v377.963zM457.301 389.852h68.004v-280.885h-68.004v280.885zM211.403 960v-67.511h600.701v-738.679h68.004v806.191zM68.004 812.658h-68.004v-876.658h737.201v876.658h-669.197zM668.705 4.004h-600.701v740.651h600.701v-740.651z" />
<glyph unicode="&#xe937;" glyph-name="back_files" horiz-adv-x="780" d="M760.323 629.609l-317.684 311.33c-12.346 11.859-29.147 19.163-47.653 19.163s-35.306-7.303-47.676-19.185l0.023 0.022-328.273-311.33c-11.168-11.283-18.068-26.809-18.068-43.946s6.9-32.664 18.073-43.951l-0.005 0.005c12.012-11.73 28.458-18.967 46.594-18.967s34.581 7.237 46.607 18.98l-0.013-0.013 211.789 201.2v-666.077h-211.789c-35.284-4.46-62.298-34.285-62.298-70.42s27.013-65.96 61.947-70.384l0.35-0.036h277.444c38.599 0 69.89 31.291 69.89 69.89v0 741.262l211.789-201.2c12.012-11.73 28.458-18.967 46.594-18.967s34.581 7.237 46.607 18.98l-0.013-0.013c8.752 10.668 14.058 24.457 14.058 39.484 0 17.25-6.991 32.867-18.294 44.173v0z" />
<glyph unicode="&#xe938;" glyph-name="portfolio1" horiz-adv-x="922" d="M12.8 947.2h896v-793.6h-155.429v76.8h78.629v640h-572.826l393.626-99.242v-835.446l-640 190.413v821.075zM89.6 183.398l486.4-144.691v672.666l-486.4 122.573v-650.547z" />
<glyph unicode="&#xe939;" glyph-name="storage" horiz-adv-x="960" d="M911.36 911.36c-30.103 30.054-71.663 48.64-117.565 48.64-0.069 0-0.137 0-0.206 0h-627.189c-0.192 0.001-0.418 0.001-0.645 0.001-91.547 0-165.76-74.213-165.76-165.76 0-0.451 0.002-0.901 0.005-1.35v0.069-689.92c-0.003-0.381-0.005-0.831-0.005-1.281 0-91.547 74.213-165.76 165.76-165.76 0.227 0 0.453 0 0.68 0.001h627.165c0.192-0.001 0.418-0.001 0.645-0.001 91.547 0 165.76 74.213 165.76 165.76 0 0.451-0.002 0.901-0.005 1.35v-0.069 689.92c0 0.091 0 0.199 0 0.306 0 46.068-18.578 87.798-48.651 118.104l0.011-0.011zM911.36 103.040c0-0.005 0-0.011 0-0.018 0-31.984-12.962-60.94-33.92-81.903v0c-20.57-20.942-49.188-33.921-80.836-33.921-0.156 0-0.312 0-0.468 0.001h-629.736c-0.132-0.001-0.288-0.001-0.444-0.001-31.649 0-60.266 12.979-80.82 33.904l-0.016 0.017c-20.958 20.962-33.92 49.919-33.92 81.902 0 0.006 0 0.012 0 0.018v-0.001 134.4h857.6zM911.36 288.64h-860.16v283.52h857.6zM911.36 624h-860.16v168.96c0 0.005 0 0.011 0 0.018 0 31.984 12.962 60.94 33.92 81.903v0c20.57 20.942 49.188 33.921 80.836 33.921 0.156 0 0.312 0 0.468-0.001h627.176c0.132 0.001 0.288 0.001 0.444 0.001 31.649 0 60.266-12.979 80.82-33.904l0.016-0.017c20.958-20.962 33.92-49.919 33.92-81.902 0-0.006 0-0.012 0-0.018v0.001zM293.12 768h-74.24c-15.175-1.3-27.001-13.938-27.001-29.339 0-0.937 0.044-1.864 0.129-2.778l-0.009 0.117c-0.077-0.798-0.121-1.724-0.121-2.661 0-15.401 11.825-28.039 26.891-29.331l0.109-0.008h74.24c15.175 1.3 27.001 13.938 27.001 29.339 0 0.937-0.044 1.864-0.129 2.778l0.009-0.117c0.077 0.798 0.121 1.724 0.121 2.661 0 15.401-11.825 28.039-26.891 29.331l-0.109 0.008zM218.88 384h74.24c15.052 3.105 26.208 16.25 26.208 32s-11.156 28.895-25.997 31.963l-0.211 0.037h-74.24c-15.052-3.105-26.208-16.25-26.208-32s11.156-28.895 25.997-31.963l0.211-0.037zM218.88 64h74.24c15.052 3.105 26.208 16.25 26.208 32s-11.156 28.895-25.997 31.963l-0.211 0.037h-74.24c-15.052-3.105-26.208-16.25-26.208-32s11.156-28.895 25.997-31.963l0.211-0.037z" />
<glyph unicode="&#xe93a;" glyph-name="screensize" d="M51.2 243.2v-256h256v-51.2h-307.2v307.2h51.2zM1024 243.2v-307.2h-307.2v51.2h256v256h51.2zM819.2 704v-512h-614.4v512h614.4zM716.8 601.6h-409.6v-307.2h409.6v307.2zM307.2 960v-51.2h-256v-256h-51.2v307.2h307.2zM1024 652.8h-51.2v256h-256v51.2h307.2v-307.2z" />
<glyph unicode="&#xe93b;" glyph-name="trino_cancel" horiz-adv-x="1097" d="M1021.479 786.078c-11.671 3.676-25.093 5.794-39.010 5.794-2.016 0-4.021-0.044-6.015-0.132l0.284 0.010h-50.412l107.756 110.907c6.089 6.146 9.851 14.607 9.851 23.946s-3.762 17.8-9.854 23.948l0.003-0.003c-5.82 5.842-13.872 9.457-22.769 9.457-0.192 0-0.384-0.002-0.576-0.005h0.029c-0.163 0.003-0.355 0.005-0.547 0.005-8.896 0-16.949-3.615-22.768-9.456l-0.001-0.001-151.867-158.799h-296.172l-109.017 107.126c-6.868 7.006-16.431 11.35-27.008 11.35-0.253 0-0.505-0.002-0.757-0.007l0.038 0.001h-276.007c-6.138 0.598-13.269 0.939-20.48 0.939s-14.342-0.341-21.378-1.008l0.898 0.069c-48.85-11.757-84.654-54.887-85.070-106.45v-0.046c0-15.754 0-31.508 0-47.262v-659.141c0.507-43.566 25.772-81.112 62.362-99.271l0.653-0.293-3.151-3.781c-6.089-6.146-9.851-14.607-9.851-23.946s3.762-17.8 9.854-23.948l-0.003 0.003c5.899-6.142 14.149-9.987 23.298-10.082h0.018c9.167 0.096 17.417 3.941 23.305 10.071l0.011 0.011 39.070 40.33h845.666c53.922 2.117 97.708 42.865 104.547 95.231l0.059 0.553c0.3 4.147 0.471 8.985 0.471 13.863s-0.171 9.716-0.508 14.509l0.036-0.645v567.138c0.015 0.682 0.023 1.486 0.023 2.293 0 48.865-30.899 90.513-74.225 106.471l-0.786 0.254zM109.017 58.25h-15.754l-7.562 3.781v3.781l-9.452 7.562c-0.119 1.321-0.186 2.858-0.186 4.411s0.068 3.090 0.2 4.608l-0.014-0.197c-0.137 1.51-0.215 3.267-0.215 5.041s0.078 3.531 0.231 5.266l-0.016-0.225c0 7.562 0 14.494 0 22.055v689.388c0 3.781 0 7.562 3.151 11.343l-3.151 7.562 3.781 3.781s0 0 0 0v0l8.192 4.411h303.104l90.742-81.29c5.671-5.671 11.343-11.973 17.644-17.644 7.16-7.074 16.882-11.57 27.651-11.971l0.075-0.002h241.979l-294.282-299.323s0 5.041 0 7.562c0.001 0.14 0.001 0.305 0.001 0.47 0 63.688-51.63 115.318-115.318 115.318s-115.318-51.63-115.318-115.318c0-31.021 12.249-59.181 32.173-79.908l-0.036 0.038c-59.817-32.538-99.735-94.917-99.735-166.619 0-6.121 0.291-12.175 0.86-18.147l-0.059 0.762h52.303l-107.126-109.647zM361.078 310.311h8.822l-130.442-132.332c-0.201 2.666-0.315 5.775-0.315 8.911 0 67.943 53.763 123.329 121.068 125.935l0.237 0.007zM306.255 428.15c1.716 28.89 25.564 51.67 54.733 51.67 30.278 0 54.823-24.545 54.823-54.823s-24.545-54.823-54.823-54.823c-0.19 0-0.379 0.001-0.568 0.003h0.029c-30.165 1.031-54.226 25.732-54.226 56.053 0 0.676 0.012 1.348 0.036 2.018l-0.003-0.097zM1027.781 625.388v-460.642c0-22.686 0-45.371 0-68.687v-4.411c-0.871-4.399-1.96-8.201-3.322-11.87l0.172 0.528c-0.946-2.652-2.227-4.948-3.822-6.986l0.041 0.054-3.151-3.781-3.781-3.151-8.192-4.411h-788.953l219.294 222.444c29.055-26.494 47.215-64.506 47.215-106.759 0-4.566-0.212-9.083-0.627-13.541l0.043 0.571h63.015c0.191 3.232 0.3 7.012 0.3 10.818 0 58.696-25.887 111.346-66.867 147.155l-0.229 0.196 382.503 393.846h34.028c31.508 0 63.015 0 94.523 0h15.754l6.932-3.781 3.781-3.781 3.151-3.781 3.781-8.192c1.191-2.814 2.274-6.182 3.069-9.659l0.081-0.423v-63.015z" />
<glyph unicode="&#xe93c;" glyph-name="solutions" horiz-adv-x="970" d="M768 57.263v-80.842h-565.895v80.842h565.895zM956.632 946.526v-781.474h-943.158v781.474h943.158zM875.789 865.684h-781.474v-619.789h781.474v619.789z" />
<glyph unicode="&#xe93d;" glyph-name="upload" d="M1024-64h-1024v665.6h307.2v-51.2h-256v-563.2h921.6v563.2h-256v51.2h307.2v-665.6zM716.8 704h-153.6v-460.8h-102.4v460.8h-153.6l204.8 256 204.8-256z" />
<glyph unicode="&#xe93e;" glyph-name="trino_shared-folder" horiz-adv-x="1216" d="M1132.267 822.396c-12.937 4.075-27.815 6.422-43.241 6.422-2.234 0-4.457-0.049-6.668-0.147l0.315 0.011h-488.95l-76.835 79.629-39.814 39.116c-7.613 7.766-18.213 12.581-29.937 12.581-0.28 0-0.56-0.003-0.839-0.008l0.042 0.001h-305.943c-6.804 0.663-14.708 1.041-22.701 1.041s-15.898-0.378-23.697-1.118l0.996 0.076c-54.149-13.032-93.836-60.84-94.297-117.995v-0.051c0-17.462 0-34.925 0-52.387v-730.63c-0.003-0.296-0.004-0.647-0.004-0.997 0-55.825 37.422-102.91 88.55-117.536l0.862-0.211c13.853-2.996 29.767-4.711 46.081-4.711 5.414 0 10.784 0.189 16.103 0.561l-0.716-0.040h947.864c59.77 2.346 108.305 47.515 115.886 105.559l0.065 0.613c0.333 4.597 0.522 9.96 0.522 15.367s-0.19 10.77-0.563 16.082l0.040-0.715v628.649c0.016 0.756 0.026 1.648 0.026 2.541 0 54.165-34.251 100.33-82.275 118.018l-0.872 0.281zM999.553 15.629h-896.175l-8.382 4.191v4.191l-10.477 8.382c-0.132 1.465-0.207 3.168-0.207 4.889s0.075 3.425 0.222 5.108l-0.015-0.218c-0.152 1.674-0.238 3.621-0.238 5.588s0.087 3.914 0.256 5.837l-0.018-0.249c0 8.382 0 16.065 0 24.447v764.158c0 4.191 0 8.382 3.492 12.573l-3.492 8.382 4.191 4.191s0 0 0 0v0l9.080 4.889h335.978l100.584-90.106c6.286-6.286 12.573-13.271 19.558-19.558 7.937-7.842 18.713-12.825 30.65-13.269l0.084-0.002h407.924c34.925 0 69.85 0 104.775 0h17.462l7.683-4.191 4.191-4.191 3.492-4.191 4.191-9.080c1.32-3.12 2.52-6.853 3.402-10.707l0.090-0.469v-582.548c0-25.146 0-50.292 0-76.136v-4.889c-0.966-4.876-2.172-9.091-3.683-13.158l0.19 0.585c-1.049-2.94-2.468-5.485-4.236-7.743l0.045 0.060-3.492-4.191-4.191-3.492-9.080-4.889h-113.855zM492.442 337.637c21.837 22.89 35.274 53.96 35.274 88.168 0 70.596-57.229 127.825-127.825 127.825s-127.825-57.229-127.825-127.825c0-34.208 13.438-65.278 35.322-88.219l-0.048 0.051c-66.675-35.961-111.218-105.302-111.218-185.046 0-6.66 0.311-13.247 0.918-19.748l-0.063 0.832h69.85c-1.010 6.31-1.586 13.585-1.586 20.994 0 75.993 60.677 137.814 136.226 139.658l0.171 0.003c75.108-2.604 135.006-64.118 135.006-139.621 0-7.424-0.579-14.712-1.694-21.822l0.102 0.789h69.85c0.486 5.352 0.763 11.576 0.763 17.865 0 80.539-45.437 150.467-112.075 185.547l-1.146 0.55zM339.471 425.648c1.902 32.024 28.336 57.274 60.669 57.274 33.562 0 60.769-27.207 60.769-60.769s-27.207-60.769-60.769-60.769c-0.21 0-0.42 0.001-0.63 0.003h0.032c-33.436 1.143-60.107 28.523-60.107 62.132 0 0.749 0.013 1.495 0.040 2.237l-0.003-0.108z" />
<glyph unicode="&#xe93f;" glyph-name="Magnify" d="M438.857 960c242.382 0 438.857-196.492 438.857-438.857 0-103.603-35.901-198.824-95.943-273.898l227.947-228.003-68.96-68.96-227.993 227.955c-75.073-60.046-170.296-95.951-273.908-95.951-242.35 0-438.857 196.507-438.857 438.857s196.507 438.857 438.857 438.857zM438.857 862.476c-188.489 0-341.333-152.845-341.333-341.333s152.845-341.333 341.333-341.333c188.52 0 341.333 152.827 341.333 341.333s-152.814 341.333-341.333 341.333z" />
<glyph unicode="&#xe940;" glyph-name="Profile" d="M512 960c169.662 0 307.2-137.538 307.2-307.2 0-96.278-44.291-182.212-113.608-238.538 180.458-66.496 312.369-228.724 318.207-462.059l0.202-16.204h-102.4c0 259.096-185.203 409.6-409.6 409.6-220.163 0-402.597-144.878-409.403-395.050l-0.197-14.55h-102.4c0 242.029 133.804 410.237 318.35 478.289-69.26 56.299-113.55 142.232-113.55 238.511 0 169.662 137.538 307.2 307.2 307.2zM512 857.6c-113.108 0-204.8-91.692-204.8-204.8s91.692-204.8 204.8-204.8c113.108 0 204.8 91.692 204.8 204.8s-91.692 204.8-204.8 204.8z" />
<glyph unicode="&#xe941;" glyph-name="add_folder" horiz-adv-x="1229" d="M1146.88 823.467c-12.544 4.063-26.977 6.405-41.957 6.405-3.012 0-6.001-0.095-8.966-0.281l0.405 0.020h-492.885l-81.237 78.507-40.96 38.912c-7.494 7.996-18.122 12.979-29.913 12.979-0.284 0-0.567-0.003-0.85-0.009l0.042 0.001h-309.248c-6.852 0.64-14.818 1.005-22.869 1.005s-16.017-0.365-23.882-1.079l1.013 0.074c-54.425-12.792-94.403-60.71-94.89-118.047v-0.054c0-17.067 0-34.816 0-52.565v-730.453c0.167-56.437 38.145-103.958 89.924-118.574l0.87-0.21c14.010-2.927 30.11-4.602 46.602-4.602 5.461 0 10.879 0.184 16.248 0.545l-0.727-0.039h955.733c59.883 2.209 108.618 47.185 116.663 105.173l0.073 0.641c0.318 4.695 0.499 10.177 0.499 15.701s-0.181 11.006-0.538 16.44l0.039-0.739v632.149c0.005 0.41 0.008 0.895 0.008 1.38 0 52.658-32.402 97.748-78.356 116.419l-0.841 0.302zM1150.976 645.973v-590.507c-0.944-4.766-2.123-8.885-3.599-12.859l0.186 0.571-4.096-8.192-3.413-4.096h-4.096l-8.875-5.461h-1011.029l-13.653-6.144-8.192 4.096-4.779 4.096-3.413 4.096s-3.413 6.144-5.461 9.557v10.923c0 8.192 0 16.384 0 23.893v761.173s0 0 0 4.779c1.080 5.241 2.258 9.591 3.662 13.839l-0.248-0.868c1.209 3.148 2.586 5.846 4.206 8.375l-0.11-0.183 4.096 4.096s0 0 0 0v0l10.24 10.24h10.923c11.605 0 23.211 0 34.816 0h289.451l101.717-95.573 19.797-19.115c8.027-8.159 19.081-13.317 31.34-13.652l0.062-0.001h534.528l8.192-4.096h4.096l3.413-4.096c1.695-2.712 3.299-5.857 4.63-9.141l0.149-0.416c0.185-1.74 0.291-3.759 0.291-5.803s-0.106-4.062-0.312-6.052l0.021 0.249c0-6.827 0-13.653 0-19.797zM512 345.6h-102.4v101.717c0 0.002 0 0.004 0 0.007 0 18.988-15.201 34.426-34.098 34.809l-0.036 0.001c-18.783-0.742-33.774-15.971-34.133-34.782l-0.001-0.034v-101.717h-102.4c-0.002 0-0.004 0-0.007 0-18.988 0-34.426-15.201-34.809-34.098l-0.001-0.036c0.742-18.783 15.971-33.774 34.782-34.133l0.034-0.001h102.4v-101.717c0-0.002 0-0.004 0-0.007 0-18.988 15.201-34.426 34.098-34.809l0.036-0.001c18.783 0.742 33.774 15.971 34.133 34.782l0.001 0.034v101.717h102.4c0.002 0 0.004 0 0.007 0 18.988 0 34.426 15.201 34.809 34.098l0.001 0.036c-0.742 18.783-15.971 33.774-34.782 34.133l-0.034 0.001z" />
<glyph unicode="&#xe942;" glyph-name="copy2" horiz-adv-x="1047" d="M1047.963 960h-837.092v-186.908h-213.001v-836.56h839.222v186.908h213.001zM728.462 43.033h-621.962v623.559h624.092zM941.462 229.941h-106.5v543.151h-517.591v80.408h624.092z" />
<glyph unicode="&#xe943;" glyph-name="icon_logout" d="M0 960v-1024h870.4v51.2h-819.2v921.6h819.2v51.2h-870.4zM614.4 652.8l-256-204.8 256-204.8v153.6h409.6v102.4h-409.549l-0.051 153.6z" />
<glyph unicode="&#xe944;" glyph-name="icon_login" d="M1024 960v-1024h-870.4v51.2h819.2v921.6h-819.2v51.2h870.4zM409.6 652.8l256-204.8-256-204.8v153.6h-409.6v102.4h409.549l0.051 153.6z" />
<glyph unicode="&#xe945;" glyph-name="data-sharing" horiz-adv-x="1117" d="M1061.236 353.047h-1005.382c-15.649-0.24-29.676-6.988-39.53-17.65l-0.034-0.037c-10.087-11.169-16.259-26.042-16.259-42.356s6.172-31.188 16.308-42.412l-0.049 0.055 279.273-299.753c9.6-9.586 22.854-15.514 37.492-15.514 5.727 0 11.243 0.907 16.41 2.586l-0.375-0.105c19.485 6.17 34.265 21.875 39.018 41.497l0.081 0.394c1.356 4.871 2.135 10.465 2.135 16.24 0 15.927-5.926 30.47-15.692 41.545l0.059-0.068-186.182 197.353h872.727c20.167 1.176 37.376 12.796 46.398 29.491l0.147 0.298c4.617 8.715 7.328 19.052 7.328 30.022s-2.711 21.307-7.499 30.377l0.171-0.355c-9.424 16.494-26.603 27.614-46.439 28.389l-0.106 0.003zM55.855 539.229h1005.382c15.596 0.052 29.641 6.652 39.537 17.193l0.027 0.029c10.087 11.169 16.259 26.042 16.259 42.356s-6.172 31.188-16.308 42.412l0.049-0.055-279.273 298.822c-9.967 10.664-23.908 17.504-39.449 18.149l-0.115 0.004c-15.82-0.103-30.038-6.878-39.996-17.651l-0.034-0.037c-10.105-10.654-16.32-25.084-16.32-40.967 0-0.652 0.010-1.302 0.031-1.95l-0.002 0.095c0-0.055 0-0.121 0-0.187 0-16.341 6.38-31.192 16.784-42.199l-0.027 0.029 183.855-195.025h-870.4c-20.228-0.981-37.515-12.672-46.4-29.487l-0.145-0.302c-4.615-8.64-7.325-18.898-7.325-29.789s2.711-21.149 7.494-30.136l-0.168 0.347c8.57-17.872 25.962-30.288 46.379-31.642l0.167-0.009z" />
<glyph unicode="&#xe946;" glyph-name="delete1" horiz-adv-x="941" d="M553.514 876.973h-193.73v-83.027h193.73zM816.432 710.919h-691.892v-691.892h691.892zM636.541 960v-166.054h304.432v-83.027h-41.514v-761.081h-13.838v-13.838h-830.27v13.838h-13.838v761.081h-41.514v83.027h276.757v166.054z" />
<glyph unicode="&#xe947;" glyph-name="icon_duplicate" d="M113.778 789.333v-796.388l739.556-0.057v-56.889h-796.444v853.333h56.889zM568.889 960v-56.889h-284.444l-0.057-739.556h625.778l0.057 341.333h56.889l-0.057-341.333h0.057v-56.889h-739.556v853.333h341.333zM796.444 903.111v-170.667h170.667v-113.778h-170.667v-170.667h-113.778v170.667h-170.667v113.778h170.667v170.667h113.778z" />
<glyph unicode="&#xe948;" glyph-name="icon_filter-reset" horiz-adv-x="1232" d="M279.135 271.265c13.653 0 28.824 4.551 40.96 15.17l260.93 232.107-80.403 91.022-172.942-151.704c4.551 194.181 156.255 359.538 350.436 379.259 215.419 22.756 408.083-133.499 429.321-348.919 22.756-215.419-133.499-408.083-348.919-429.321-130.465-13.653-259.413 39.443-342.85 141.084l-94.056-77.369c98.607-119.846 242.726-186.596 395.947-186.596 18.204 0 34.892 1.517 53.096 3.034 282.169 27.307 486.969 280.652 458.145 561.304s-282.169 486.969-562.821 456.628c-241.209-25.79-430.839-219.97-456.628-455.111l-118.329 131.982-91.022-80.403 232.107-260.93c13.653-13.653 30.341-21.239 47.028-21.239z" />
<glyph unicode="&#xe949;" glyph-name="alert-success" d="M512 960c282.77 0 512-229.23 512-512s-229.23-512-512-512c-282.77 0-512 229.23-512 512v0c0 282.77 229.23 512 512 512v0zM689.694 614.852l-256-255.398-127.699 127.699-63.849-63.849 191.548-191.548 63.849 63.849 256 255.398-63.849 63.849z" />
<glyph unicode="&#xe94a;" glyph-name="lightbulb2" horiz-adv-x="728" d="M606.855 874.307c-65.965 52.586-150.533 84.377-242.526 84.377s-176.562-31.791-243.318-84.986l0.791 0.609c-73.184-57.645-119.745-146.261-119.745-245.752 0-75.326 26.689-144.418 71.128-198.336l-0.427 0.534c35.96-40.825 58.115-94.566 58.744-153.469l0.001-0.131c0.281-28.272 12.68-53.593 32.242-71.058l0.094-0.083c18.802-16.891 43.739-27.286 71.1-27.486h258.736c0.253-0.002 0.552-0.003 0.852-0.003 27.677 0 52.918 10.432 72.006 27.578l-0.1-0.088c19.657 17.548 32.056 42.869 32.336 71.091v0.050c1.467 59.795 24.747 113.884 62.147 154.864l-0.168-0.186c42.685 52.862 68.521 120.876 68.521 194.923 0 100.598-47.684 190.058-121.683 247.011l-0.732 0.542zM594.459 483.571c-48.078-54.93-77.587-127.174-78.147-206.299l-0.001-0.118c-0.148-4.524-2.197-8.542-5.37-11.302l-0.019-0.016c-4.888-4.032-11.215-6.477-18.113-6.477-0.264 0-0.527 0.004-0.789 0.011l0.039-0.001h-87.309v242.526h-80.842v-242.526h-88.926c-0.223-0.006-0.486-0.010-0.75-0.010-6.898 0-13.225 2.445-18.162 6.516l0.049-0.039c-3.192 2.775-5.241 6.793-5.389 11.293l-0.001 0.025c-0.625 78.798-29.911 150.636-77.931 205.717l0.323-0.378c-32.081 39.507-51.509 90.417-51.509 145.865 0 74.344 34.926 140.531 89.264 183.048l0.51 0.384c52.421 41.993 119.716 67.392 192.943 67.392s140.523-25.399 193.557-67.867l-0.614 0.475c54.856-42.798 89.797-108.911 89.797-183.186 0-55.097-19.227-105.703-51.337-145.474l0.344 0.441zM188.632 124.632h350.316v-80.842h-350.316v80.842zM242.526 16.842h242.526v-80.842h-242.526v80.842z" />
<glyph unicode="&#xe94b;" glyph-name="big-edit" horiz-adv-x="1152" d="M1151.589-9.528v-54.838h-1151.589v54.838zM938.088 959.634l160.857-160.857-595.17-595.17-198.146-36.558 36.558 198.146 595.17 595.536zM938.088 882.131l-544.354-544.72-19.376-102.729 102.363 19.376 544.72 544.72-83.353 83.353z" />
<glyph unicode="&#xe94c;" glyph-name="big-feedback" horiz-adv-x="960" d="M931.84-64h-904c-15.552 0-28.16 12.608-28.16 28.16v0 596.16c0.011 4.183 0.954 8.143 2.631 11.687l-0.071-0.167 2.24 3.52c1.348 2.047 2.824 3.828 4.473 5.433l0.007 0.007 120.64 99.2v142.72c0 0.001 0 0.001 0 0.002 0 15.552 12.608 28.16 28.16 28.16 0.113 0 0.225-0.001 0.337-0.002h179.183l124.48 102.72c4.87 3.897 11.12 6.254 17.92 6.254s13.050-2.357 17.977-6.298l-0.057 0.044 124.48-102.72h179.2c0.071 0.001 0.155 0.001 0.239 0.001 7.735 0 14.757-3.049 19.931-8.011l-0.010 0.010c5.068-5.213 8.223-12.309 8.32-20.141v-142.419l122.88-101.76 2.56-3.2 1.92-3.52c1.606-3.377 2.549-7.337 2.56-11.516v-596.164c0.001-0.095 0.002-0.207 0.002-0.32 0-15.376-12.464-27.84-27.84-27.84-0.001 0-0.001 0-0.002 0v0zM56.32 503.36v-512h847.36v512l-81.28-60.16c-2.621-3.186-5.95-5.694-9.754-7.298l-0.166-0.062-315.84-234.56c-4.676-3.498-10.572-5.601-16.96-5.601s-12.284 2.103-17.035 5.654l0.075-0.053-315.84 234.56c-3.928 1.755-7.24 4.247-9.889 7.324l-0.031 0.036zM186.56 476.8l293.44-217.92 293.44 217.92v317.76h-585.6zM830.4 606.72v-88.32l56 41.6zM74.24 560.64l55.68-41.6v87.36zM426.24 850.88h106.56l-53.12 44.16zM580.8 506.24l-85.12 76.8-85.12-76.8-34.88 32 120 107.84 120-107.84z" />
<glyph unicode="&#xe94d;" glyph-name="bookmark-a" horiz-adv-x="731" d="M629.029 960h-529.554c-0.573 0.012-1.249 0.019-1.927 0.019-54.13 0-98.011-43.881-98.011-98.011 0-3.355 0.169-6.671 0.498-9.939l-0.034 0.412v-877.714c-0.002-0.131-0.003-0.286-0.003-0.44 0-14.053 7.926-26.254 19.551-32.378l0.2-0.096c5.437-3.275 12.001-5.212 19.017-5.212s13.58 1.937 19.186 5.306l-0.169-0.094 307.931 219.429 307.2-219.429c6.066-4.124 13.552-6.584 21.613-6.584 0.116 0 0.232 0.001 0.347 0.002h-0.018c0.343-0.013 0.747-0.021 1.152-0.021 5.462 0 10.607 1.361 15.113 3.762l-0.174-0.084c12.136 6.229 20.329 18.597 20.48 32.894v877.734c0.45 3.542 0.708 7.641 0.708 11.799 0 54.534-44.209 98.743-98.743 98.743-1.535 0-3.062-0.035-4.58-0.104l0.215 0.008z" />
<glyph unicode="&#xe94e;" glyph-name="share" horiz-adv-x="878" d="M709.973 198.339c0.435 0.007 0.949 0.012 1.463 0.012 50.629 0 91.672-41.043 91.672-91.672s-41.043-91.672-91.672-91.672c-50.625 0-91.666 41.036-91.672 91.66v0.001c-0.008 0.435-0.012 0.948-0.012 1.463 0 49.821 40.388 90.21 90.21 90.21 0.004 0 0.008 0 0.012 0h-0.001zM167.741 539.672c0.435 0.007 0.949 0.012 1.463 0.012 50.629 0 91.672-41.043 91.672-91.672s-41.043-91.672-91.672-91.672c-50.625 0-91.666 41.036-91.672 91.66v0.001c-0.008 0.435-0.012 0.948-0.012 1.463 0 49.821 40.388 90.21 90.21 90.21 0.004 0 0.008 0 0.012 0h-0.001zM709.973 881.006c0.004 0 0.008 0 0.012 0 49.821 0 90.21-40.388 90.21-90.21 0-0.514-0.004-1.028-0.013-1.54l0.001 0.077c0-49.821-40.388-90.21-90.21-90.21s-90.21 40.388-90.21 90.21v0c-0.008 0.435-0.012 0.948-0.012 1.463 0 49.821 40.388 90.21 90.21 90.21 0.004 0 0.008 0 0.012 0h-0.001zM709.973 960c-92.933-1.373-167.742-77.031-167.742-170.162 0-0.178 0-0.355 0.001-0.532v0.027c0.101-18.81 2.945-36.918 8.152-53.996l-0.35 1.333-276.968-156.526c-28.267 23.876-65.088 38.422-105.304 38.522h-0.021c-94.257 0-170.667-76.41-170.667-170.667s76.41-170.667 170.667-170.667v0c0.109 0 0.237 0 0.366 0 40.054 0 76.75 14.373 105.214 38.242l-0.254-0.207 277.455-156.526c-4.61-14.588-7.266-31.364-7.266-48.761 0-92.371 74.882-167.253 167.253-167.253s167.253 74.882 167.253 167.253c0 92.371-74.882 167.253-167.253 167.253-0.189 0-0.377 0-0.565-0.001h0.029c-0.457 0.005-0.997 0.007-1.538 0.007-45.886 0-87.418-18.641-117.437-48.764l-0.005-0.005-270.141 152.625c9.205 20.223 14.587 43.855 14.629 68.739v0.015c0.004 0.412 0.006 0.899 0.006 1.386 0 24.425-5.393 47.59-15.052 68.369l0.418-1.001 269.653 152.625c30.171-30.134 71.832-48.77 117.846-48.77 0.57 0 1.139 0.003 1.707 0.009l-0.087-0.001c94.257 0 170.667 76.41 170.667 170.667s-76.41 170.667-170.667 170.667v0z" />
<glyph unicode="&#xe94f;" glyph-name="new-tab" horiz-adv-x="981" d="M931.089 960c24.685-0.064 45.111-18.216 48.727-41.898l0.035-0.275v-566.033c0-27.294-22.126-49.421-49.421-49.421v0c-0.161-0.002-0.351-0.003-0.541-0.003-24.374 0-44.57 17.883-48.186 41.243l-0.035 0.273v465.215l-796.005-856.628c-9.031-9.552-21.791-15.497-35.939-15.497-27.294 0-49.421 22.126-49.421 49.421 0 10.194 3.086 19.667 8.375 27.535l-0.112-0.177 4.613 5.931 781.508 841.472h-422.384c-24.685 0.064-45.111 18.216-48.727 41.898l-0.035 0.275v7.248c0.064 24.685 18.216 45.111 41.898 48.727l0.275 0.035h566.692z" />
<glyph unicode="&#xe950;" glyph-name="pause" horiz-adv-x="902" d="M0-65.707h341.333v1024h-341.333zM85.333 870.116h170.667v-853.333h-170.667zM557.511 958.293v-1021.156h341.333v1021.156zM815.787 22.471h-170.667v852.196h170.667z" />
<glyph unicode="&#xe951;" glyph-name="provision" horiz-adv-x="895" d="M432.088 955.984c4.289 2.657 9.49 4.231 15.059 4.231s10.77-1.574 15.183-4.303l-0.124 0.071 417.631-240.941c8.946-5.233 14.86-14.794 14.86-25.736 0-0.129-0.001-0.257-0.002-0.385v0.019-481.882c-0.035-11.038-5.923-20.692-14.722-26.025l-0.136-0.076-417.631-240.941c-4.338-2.463-9.529-3.915-15.059-3.915s-10.721 1.452-15.213 3.995l0.154-0.080-417.23 240.941c-8.935 5.41-14.823 15.064-14.858 26.097v480.683c-0.001 0.109-0.002 0.237-0.002 0.366 0 10.942 5.914 20.503 14.72 25.66l0.14 0.076zM447.347 895.347l-387.112-223.674v-446.946l387.112-223.674 387.112 223.674v446.946l-387.112 223.674zM447.347 682.115l12.047-7.228c2.959-0.972 5.506-2.483 7.646-4.432l-0.017 0.015 200.784-120.471c8.586-5.405 14.208-14.832 14.208-25.572 0-5.353-1.396-10.38-3.845-14.736l0.078 0.151c-5.279-8.743-14.73-14.5-25.525-14.5-4.275 0-8.338 0.903-12.011 2.527l0.19-0.075h-4.016l-157.013 93.967v-385.907c-0.223-16.543-13.575-29.894-30.096-30.117h-0.021c-15.263 0.041-27.889 11.281-30.097 25.934l-0.021 0.168v393.939l-157.415-94.77c-4.573-2.947-10.159-4.698-16.154-4.698-9.766 0-18.447 4.649-23.95 11.854l-0.053 0.073-2.409 3.213c-3.029 4.619-4.831 10.279-4.831 16.36 0 9.647 4.536 18.235 11.591 23.747l0.067 0.050 3.614 2.409 217.65 130.51z" />
<glyph unicode="&#xe952;" glyph-name="review-a" horiz-adv-x="1089" d="M1088.55 569.178h-416.642l-127.34 390.822-129.1-390.822h-415.468l335.661-241.77-127.927-391.409 336.248 241.77 335.661-241.77-127.927 391.409 336.834 241.77z" />
<glyph unicode="&#xe953;" glyph-name="review" horiz-adv-x="1089" d="M414.881 569.178l129.1 390.822 127.927-390.822h416.642l-336.834-241.77 127.927-391.409-335.661 241.77-336.248-241.77 127.34 391.409-335.074 241.77zM634.939 517.538l-90.957 278.152-90.957-278.152h-293.41l237.662-170.178-92.131-281.087 238.836 170.764 237.662-170.764-93.891 281.087 238.249 170.178z" />
<glyph unicode="&#xe954;" glyph-name="view-grid" d="M161.684 97.684v-161.684h-161.684v161.684zM592.842 97.684v-161.684h-161.684v161.684zM1024 97.684v-161.684h-161.684v161.684zM161.684 528.842v-161.684h-161.684v161.684zM592.842 528.842v-161.684h-161.684v161.684zM1024 528.842v-161.684h-161.684v161.684zM161.684 960v-161.684h-161.684v161.684zM592.842 960v-161.684h-161.684v161.684zM1024 960v-161.684h-161.684v161.684z" />
<glyph unicode="&#xe955;" d="M512 775.28c180.482 0 327.28-146.798 327.28-327.28s-146.798-327.28-327.28-327.28-327.28 146.798-327.28 327.28 146.798 327.28 327.28 327.28zM512 960c-282.73 0-512-229.27-512-512s229.27-512 512-512 512 229.27 512 512-229.27 512-512 512v0z" />
<glyph unicode="&#xe956;" glyph-name="zoom-in" d="M52.103 630.014c26.024-0.068 47.559-19.204 51.372-44.172l0.036-0.29v-545.346h537.009c26.203-0.017 47.939-19.118 52.061-44.155l0.042-0.306v-7.642c0.001-0.14 0.002-0.306 0.002-0.471 0-25.943-19.217-47.397-44.192-50.906l-0.272-0.031h-596.754c-26.024 0.068-47.559 19.204-51.372 44.172l-0.036 0.29v597.449c0 28.776 23.327 52.103 52.103 52.103v0zM971.897 960c0.14 0.001 0.306 0.002 0.471 0.002 25.943 0 47.397-19.217 50.906-44.192l0.031-0.272v-596.754c-0.451-28.429-23.603-51.302-52.097-51.302-25.794 0-47.211 18.744-51.372 43.354l-0.043 0.307v544.651h-537.009c-26.203 0.017-47.939 19.118-52.061 44.155l-0.042 0.306v7.642c-0.002 0.167-0.003 0.365-0.003 0.563 0 26.080 19.162 47.685 44.175 51.504l0.29 0.036h596.754z" />
<glyph unicode="&#xe957;" glyph-name="zoom-out" d="M425.17 395.717c0.093 0.001 0.203 0.001 0.312 0.001 17.202 0 31.428-12.742 33.754-29.302l0.021-0.18v-395.689c-0.299-18.851-15.65-34.017-34.544-34.017-17.103 0-31.304 12.428-34.063 28.747l-0.028 0.203v361.141h-356.074c-17.374 0.011-31.787 12.677-34.52 29.278l-0.028 0.203v5.067c-0.001 0.111-0.002 0.242-0.002 0.373 0 17.293 12.706 31.618 29.291 34.151l0.192 0.024h395.689zM598.37 960c17.256-0.045 31.535-12.734 34.063-29.289l0.024-0.192v-361.601h356.074c17.374-0.011 31.787-12.677 34.52-29.278l0.028-0.203v-5.067c0.001-0.093 0.001-0.203 0.001-0.312 0-17.202-12.742-31.428-29.302-33.754l-0.18-0.021h-395.689c-17.256 0.045-31.535 12.734-34.063 29.289l-0.024 0.192v396.149c0 19.080 15.468 34.548 34.548 34.548v0z" />
<glyph unicode="&#xe958;" d="M653.691 448c0-75.313-61.053-136.367-136.367-136.367s-136.367 61.053-136.367 136.367c0 75.313 61.053 136.367 136.367 136.367s136.367-61.053 136.367-136.367z" />
<glyph unicode="&#xe959;" d="M747.681 394.757c-13.691-59.002-49.766-112.788-105.073-147.233-110.615-68.998-256.652-35.205-325.65 75.409s-35.205 256.652 75.409 325.65c55.307 34.553 119.416 43.355 178.418 29.664l41.616 180.048c-104.964 24.34-219.273 8.584-317.935-53.025-197.324-123.219-257.413-382.913-134.302-580.238s382.913-257.413 580.238-134.194c98.662 61.61 162.988 157.338 187.328 262.302l-180.048 41.616z" />
<glyph unicode="&#xe95a;" glyph-name="a22minimuminformation" horiz-adv-x="1441" d="M1440.004 708.3s0 0.699-0.14 0.979c-0.559 2.657-1.538 5.174-2.797 7.691-0.28 0.699-0.699 1.259-0.979 1.958-1.398 2.517-3.076 5.034-5.174 7.132l-224.293 224.153s-1.538 0.979-2.237 1.678c-1.398 1.119-2.657 2.237-4.195 3.076-1.119 0.699-2.098 1.259-3.356 1.818-1.958 0.979-4.055 1.678-6.153 2.098-0.699 0.14-1.259 0.42-1.958 0.559-1.958 0.42-4.055 0.559-6.153 0.559h-559.753c-53.976 0-97.883-43.908-97.883-97.883v-828.233c0-53.976 43.908-97.883 97.883-97.883h719.862c53.976 0 97.883 43.908 97.744 97.883v668.543c0 1.958-0.28 4.055-0.559 6.013zM1216.411 845.756l110.189-110.049h-110.189v110.049zM1342.82 2.84h-719.723c-17.060 0-31.043 13.983-31.043 31.043v828.233c0 17.2 13.983 31.043 31.043 31.043h526.613s0-190.873 0-190.873c0-18.458 14.962-33.42 33.42-33.42h190.873v-634.983c0-16.78-14.263-31.043-31.043-31.043zM800.127 509.457l-82.222-200.102h53.836l14.683 39.153h78.866l14.683-39.153h54.815l-82.502 200.102h-51.878zM801.805 390.039l23.912 63.904 23.912-63.904h-47.823zM1047.073 389.2c8.81 8.81 15.522 16.78 20.136 23.912 4.475 7.132 7.551 13.983 9.229 20.416 1.538 6.432 2.377 12.865 2.377 19.157 0 12.585-3.076 23.352-9.229 32.302s-14.543 15.941-25.45 20.975-23.352 7.551-37.755 7.551c-18.318 0-33.98-3.776-47.124-11.466-13.144-7.551-23.073-17.759-29.785-30.344l39.153-23.212c3.776 6.293 8.53 11.047 14.263 14.263s12.026 4.894 18.738 4.894c7.971 0 13.983-1.818 18.039-5.454s6.013-8.53 6.013-14.822c0-2.797-0.42-5.873-1.259-8.81-0.839-3.076-2.377-6.572-4.615-10.488-2.377-3.915-6.013-8.39-11.187-13.284l-69.497-69.777v-35.658h145.147v44.887h-72.014l34.958 34.819zM1206.622 389.2c8.81 8.81 15.522 16.78 20.136 23.912 4.475 7.132 7.551 13.983 9.229 20.416 1.538 6.432 2.377 12.865 2.377 19.157 0 12.585-3.076 23.352-9.229 32.302s-14.543 15.941-25.45 20.975-23.352 7.551-37.755 7.551c-18.318 0-33.98-3.776-47.124-11.466-13.144-7.551-23.073-17.759-29.785-30.344l39.153-23.212c3.776 6.293 8.53 11.047 14.263 14.263s12.026 4.894 18.738 4.894c7.971 0 13.983-1.818 18.039-5.454s6.013-8.53 6.013-14.822c0-2.797-0.42-5.873-1.259-8.81-0.839-3.076-2.377-6.572-4.615-10.488-2.377-3.915-6.013-8.39-11.187-13.284l-69.497-69.777v-35.658h145.147v44.887h-72.014l34.958 34.819zM418.242 624.26h-383.283c-19.297 0-34.958-15.661-34.958-34.958s15.661-34.958 34.958-34.958h383.283c19.297 0 34.958 15.661 34.958 34.958s-15.661 34.958-34.958 34.958zM418.242 468.486h-293.231c-19.297 0-34.958-15.661-34.958-34.958s15.661-34.958 34.958-34.958h293.231c19.297 0 34.958 15.661 34.958 34.958s-15.661 34.958-34.958 34.958zM418.242 312.711h-191.712c-19.297 0-34.958-15.661-34.958-34.958s15.661-34.958 34.958-34.958h191.712c19.297 0 34.958 15.661 34.958 34.958s-15.661 34.958-34.958 34.958z" />
<glyph unicode="&#xe95b;" glyph-name="afo" horiz-adv-x="1654" d="M1453.614 607.422c-20.77 197.625-187.177 352.578-390.215 352.578v0c-141.862 0-263.081-77.288-332.312-190.198-46.574 30.84-100.071 52.364-159.988 52.364-136.827 0-248.605-94.785-281.836-221.541-163.009-22.406-289.263-160.995-289.263-329.921 0-184.408 150.296-334.83 334.83-334.83h964.964c195.737 0 354.466 158.729 354.466 354.466 0 140.226-82.323 259.556-200.646 316.955zM1299.794 14.798h-964.964c-141.862 0-256.031 114.169-256.031 256.031s106.994 248.479 241.807 256.031c18.378 1.259 33.483 14.979 36.252 33.231v0c15.734 104.099 105.232 183.401 214.115 183.401 56.015 0 106.743-21.021 145.261-56.015 9.189-8.434 21.902-11.958 34.238-9.567 12.21 2.392 22.658 10.574 27.944 21.902 50.35 107.246 158.352 181.513 284.983 181.513v0c169.429 0 306.759-132.925 314.438-300.34 0.755-15.357 10.448-28.7 24.672-34.49v0c101.456-40.532 172.953-139.093 172.953-256.031 0-153.443-122.225-275.668-275.668-275.668zM619.183 354.285h8.434c21.064 0 38.14-17.076 38.14-38.14v-164.897c0-21.064-17.076-38.14-38.14-38.14h-8.434c-21.064 0-38.14 17.076-38.14 38.14v164.897c0 21.064 17.076 38.14 38.14 38.14zM771.493 495.392h8.434c21.064 0 38.14-17.076 38.14-38.14v-302.48c0-21.064-17.076-38.14-38.14-38.14h-8.434c-21.064 0-38.14 17.076-38.14 38.14v302.48c0 21.064 17.076 38.14 38.14 38.14zM923.677 602.387h8.434c21.064 0 38.14-17.076 38.14-38.14v-409.474c0-21.064-17.076-38.14-38.14-38.14h-8.434c-21.064 0-38.14 17.076-38.14 38.14v409.474c0 21.064 17.076 38.14 38.14 38.14zM1075.987 495.392h8.434c21.064 0 38.14-17.076 38.14-38.14v-302.48c0-21.064-17.076-38.14-38.14-38.14h-8.434c-21.064 0-38.14 17.076-38.14 38.14v302.48c0 21.064 17.076 38.14 38.14 38.14z" />
<glyph unicode="&#xe95c;" glyph-name="airflow" d="M511.95 960c-282.735 0-511.95-229.215-511.95-511.95s229.215-511.95 511.95-511.95 511.95 229.215 511.95 511.95-229.215 511.95-511.95 511.95zM511.95-13.887c-254.672 0-461.837 207.165-461.837 461.837s207.165 461.938 461.837 461.938 461.837-207.165 461.837-461.837-207.165-461.837-461.837-461.837zM743.37 680.973c-4.41 2.105-6.515-2.005-8.82-4.41-13.43-13.731-26.961-27.261-40.29-41.092-27.061-28.263-54.823-55.926-82.185-83.989-3.809-3.909-6.014-3.508-9.722 0-25.658 25.157-51.516 50.213-77.274 75.269-6.014 5.913-12.628 11.025-19.744 15.535-24.756 15.535-52.318 23.553-80.781 28.965-38.687 7.316-77.875 10.223-117.263 10.824-7.617 0.1-15.134 0.601-22.751 0.902-2.706 0-5.312-0.501-6.615-3.207-1.403-2.806 0-5.011 2.005-6.916 1.804-1.904 3.708-3.708 5.512-5.512 41.092-39.99 82.084-80.080 123.277-119.869 3.608-3.508 3.007-5.412-0.2-8.519-22.952-23.152-45.703-46.404-68.454-69.757-5.613-5.713-11.025-11.526-16.036-17.74-15.435-19.243-23.753-41.994-30.068-65.447-12.829-47.807-15.134-96.918-16.838-143.322 0-8.72 0-14.733 0-20.646 0-2.706-0.501-5.913 2.806-7.316 3.508-1.503 5.613 1.102 7.717 3.207 2.907 3.007 5.613 6.214 8.519 9.221 38.386 39.288 76.873 78.576 115.159 117.965 3.408 3.508 5.412 3.708 9.020 0.1 25.357-25.157 50.914-50.213 76.572-75.169 6.414-6.314 13.43-11.927 21.147-16.637 24.555-15.134 51.716-22.952 79.679-28.564 25.658-5.111 51.716-7.717 77.775-9.321 20.546-1.203 41.092-1.704 61.638-2.506 3.007-0.1 6.214 0 7.617 3.408s-0.902 5.713-3.107 7.818c-4.51 4.31-9.12 8.419-13.53 12.729-36.181 35.279-72.363 70.558-108.444 105.938-9.922 9.622-9.822 9.722-0.1 19.644 23.653 24.054 47.306 48.208 70.959 72.262 5.913 6.014 10.925 12.729 15.334 19.845 14.032 22.551 21.849 47.406 27.261 73.164 5.111 24.856 7.918 50.012 9.922 75.269 1.804 22.751 1.804 45.402 3.207 68.153 0.2 3.408 1.203 7.717-2.907 9.622z" />
<glyph unicode="&#xe95d;" glyph-name="architecture" horiz-adv-x="1139" d="M724.781 127.002h-403.648c-0.947 0-1.894-0.135-2.841-0.271-14.068 74.264-79.269 130.401-157.59 130.401-88.738 0-160.566-71.829-160.566-160.566s71.829-160.566 160.566-160.566c78.322 0 143.522 56.137 157.59 130.401 0.947 0 1.894-0.271 2.976-0.271h403.648c16.774 0 30.436 13.662 30.436 30.436s-13.662 30.436-30.436 30.436zM160.566 3.635c-51.268 0-92.931 41.663-92.931 92.931s41.663 92.931 92.931 92.931 92.931-41.663 92.931-92.931-41.663-92.931-92.931-92.931zM978.82 257.133c-12.174 0-23.943-1.488-35.441-4.058l-205.206 332.766c-8.793 14.339-27.595 18.803-41.934 9.875-14.339-8.793-18.803-27.595-9.875-41.934l200.742-325.597c-41.663-28.948-68.988-77.104-68.988-131.754 0-88.738 71.829-160.566 160.566-160.566s160.566 71.829 160.566 160.566-71.829 160.566-160.566 160.566zM978.82 3.635c-51.268 0-92.931 41.663-92.931 92.931s41.663 92.931 92.931 92.931 92.931-41.663 92.931-92.931-41.663-92.931-92.931-92.931zM259.179 305.425c5.005-3.111 10.551-4.464 15.962-4.464 10.145 0 20.155 5.14 25.972 14.474l207.1 335.877c18.938-7.846 39.77-12.31 61.548-12.31 88.738 0 160.566 71.829 160.566 160.566s-71.964 160.431-160.566 160.431-160.566-71.829-160.566-160.566c0-44.91 18.532-85.491 48.292-114.574l-208.046-337.501c-8.793-14.339-4.329-33.006 9.875-41.934zM569.761 892.365c51.268 0 92.931-41.663 92.931-92.931s-41.663-92.931-92.931-92.931-92.931 41.663-92.931 92.931 41.663 92.931 92.931 92.931z" />
<glyph unicode="&#xe95e;" glyph-name="btp" horiz-adv-x="1654" d="M1453.614 607.422c-20.77 197.625-187.177 352.578-390.215 352.578v0c-141.862 0-263.081-77.288-332.312-190.198-46.574 30.84-100.071 52.364-159.988 52.364-136.827 0-248.605-94.785-281.836-221.541-163.009-22.406-289.263-160.995-289.263-329.921 0-184.408 150.296-334.83 334.83-334.83h964.964c195.737 0 354.466 158.729 354.466 354.466 0 140.226-82.323 259.556-200.646 316.955zM1299.794 14.798h-964.964c-141.862 0-256.031 114.169-256.031 256.031s106.994 248.479 241.807 256.031c18.378 1.259 33.483 14.979 36.252 33.231v0c15.734 104.099 105.232 183.401 214.115 183.401 56.015 0 106.743-21.021 145.261-56.015 9.189-8.434 21.902-11.958 34.238-9.567 12.21 2.392 22.658 10.574 27.944 21.902 50.35 107.246 158.352 181.513 284.983 181.513v0c169.429 0 306.759-132.925 314.438-300.34 0.755-15.357 10.448-28.7 24.672-34.49v0c101.456-40.532 172.953-139.093 172.953-256.031 0-153.443-122.225-275.668-275.668-275.668zM695.086 321.18c-1.636 0.629-3.273 1.133-4.909 1.762 11.203 6.294 20.14 14.224 26.434 24.294 7.427 11.581 11.077 25.049 11.077 40.406 0 22.909-8.937 41.665-26.937 56.015s-45.189 21.651-81.945 21.651h-140.855v-297.319h148.785c37.385 0 65.833 7.175 85.218 21.651s29.077 34.364 29.077 59.917c0 16.993-4.028 31.595-12.084 43.679-8.056 12.21-19.385 21.399-33.986 27.819zM608.987 404.636c13.217 0 23.035-2.392 29.707-7.049 6.546-4.657 9.944-11.958 9.944-21.902 0-9.315-3.273-16.364-9.944-21.273-6.546-4.783-16.49-7.175-29.707-7.175h-53.749v57.399h53.749zM651.659 236.214c-6.923-4.909-17.119-7.427-30.84-7.427h-65.707v60.295h65.707c13.72 0 24.042-2.518 30.84-7.427s10.322-12.588 10.322-22.658-3.399-17.748-10.322-22.784zM751.856 398.72h85.092v-230.605h78.295v230.605h84.714v66.714h-248.101v-66.714zM1221.499 452.217c-18.504 8.811-40.406 13.217-65.707 13.217h-126.253v-297.319h78.295v77.665h47.833c25.301 0 47.203 4.406 65.707 13.343s32.602 21.525 42.546 37.763c9.944 16.238 14.853 35.875 14.853 58.784s-4.909 41.791-14.853 58.406c-9.944 16.616-24.042 29.203-42.546 38.015zM1187.89 323.698c-8.182-7.553-20.392-11.203-36.756-11.203h-43.050v86.603h43.050c16.364 0 28.574-3.902 36.756-11.706s12.21-18.378 12.21-31.595-4.154-24.546-12.21-32.098z" />
<glyph unicode="&#xe95f;" glyph-name="businessmodelglossary" horiz-adv-x="853" d="M122.802 123.525c176.299 0 352.483 0 528.668 0h201.959s0 812.647 0 812.647l-0.229 1.146c-6.759 19.932-22.567 22.567-35.741 22.567h-0.229c-148.92-0.229-297.726-0.229-446.647-0.229h-244.459c-8.477 0-18.443-0.344-27.837-2.291-59.683-12.372-98.288-60.714-98.288-122.917 0-257.632 0-515.379 0.115-773.012 0-10.768 0.916-20.276 2.864-28.868 12.83-58.652 60.828-96.569 122.115-96.569 93.476 0 186.952 0 280.429 0 143.88 0 287.875 0 431.869 0 2.978 0 5.957 0.344 8.935 0.573l7.217 0.687v53.268h-107.566c-207.687 0-415.374 0-623.175 0-38.719 0-67.816 28.639-67.816 66.556s29.211 66.441 67.816 66.441zM54.986 160.526v43.76c0 211.353 0 422.82 0 634.172 0 32.533 20.963 58.194 50.862 64.838h691.907v-725.014h-602.441c-22.338 0-42.271 0-58.766 0h-0.458c-1.146 0-2.406 0-3.551 0h-2.062c-23.713-0.458-50.404-3.78-75.262-20.047 0 0.802-0.115 1.489-0.115 2.177zM435.077 360.882c-19.016 0-34.366-15.465-34.366-34.366s15.465-34.366 34.366-34.366 34.366 15.465 34.366 34.366-15.465 34.366-34.366 34.366zM435.077 624.585c-66.9 0-121.313-49.029-121.313-109.285s54.413-109.285 121.313-109.285 121.313 49.029 121.313 109.285c0 14.205-11.57 25.775-25.775 25.775s-25.775-11.57-25.775-25.775c0-31.846-31.273-57.735-69.764-57.735s-69.764 25.889-69.764 57.735 31.273 57.735 69.764 57.735c66.9 0 121.313 49.029 121.313 109.285s-54.413 109.285-121.313 109.285-121.313-49.029-121.313-109.285c0-14.205 11.57-25.775 25.775-25.775s25.775 11.57 25.775 25.775c0 31.846 31.273 57.735 69.764 57.735s69.764-25.889 69.764-57.735-31.273-57.735-69.764-57.735z" />
<glyph unicode="&#xe960;" glyph-name="carlaeconomicsmodel" d="M511.94 551.53c-57.083 0-103.47-46.387-103.47-103.47s46.387-103.47 103.47-103.47 103.47 46.387 103.47 103.47-46.387 103.47-103.47 103.47zM565.297 448.060c0-29.443-23.915-53.357-53.357-53.357s-53.357 23.915-53.357 53.357 23.915 53.357 53.357 53.357 53.357-23.915 53.357-53.357zM753.85 253.379c1.562 2.043 3.245 3.966 4.807 6.129 1.803 2.403 3.605 4.807 5.408 7.331l2.644 3.725c2.403 3.485 4.807 6.97 7.451 11.176 31.606 49.752 48.31 107.195 48.31 166.32 0 171.248-139.281 310.529-310.529 310.529s-310.529-139.281-310.529-310.529 127.745-299.593 290.7-309.808h1.562c6.009-0.481 12.138-0.721 18.867-0.721h3.485c4.807 0.12 9.614 0.361 14.421 0.601 2.403 0.12 4.927 0.361 8.292 0.601 3.485 0.24 6.97 0.601 11.417 1.202 2.524 0.24 4.927 0.601 7.451 0.961 4.807 0.721 9.614 1.562 14.301 2.524 2.884 0.601 5.768 1.202 8.893 1.923 3.966 0.961 8.052 1.923 12.017 3.004 2.403 0.721 4.927 1.322 7.331 2.043 4.326 1.322 8.653 2.644 12.859 4.086l5.047 1.682c5.889 2.163 11.657 4.446 17.305 6.97l4.687 2.043c4.927 2.283 9.854 4.567 14.661 7.090l3.365 1.682c5.889 3.125 11.657 6.489 17.305 9.974l5.047 3.245c2.403 1.562 4.927 3.125 7.331 4.807 1.923 1.322 3.846 2.644 5.768 4.086l1.442 1.082c1.682 1.202 3.245 2.403 4.807 3.605 2.524 1.923 4.927 3.846 7.451 5.768l4.086 3.365c2.644 2.283 5.288 4.567 7.931 6.85l3.125 2.764c2.764 2.524 5.408 5.047 8.052 7.691l2.764 2.764c2.524 2.524 5.047 5.167 7.451 7.811v0s3.125 3.365 3.125 3.365c2.163 2.403 4.326 4.927 6.369 7.331 1.322 1.562 2.644 3.125 4.086 4.927zM663.359 412.248c-9.374-40.378-33.769-74.748-68.86-96.62-24.636-15.382-52.876-23.434-81.838-23.434-54.078 0-103.349 27.279-131.831 72.945-21.872 35.091-28.842 76.671-19.468 117.049s33.769 74.748 68.86 96.62c24.636 15.382 52.876 23.434 81.838 23.434 11.777 0 23.674-1.322 35.211-3.966l11.657-2.764 23.794 102.989c112.242-31.606 189.634-132.912 189.634-250.562 0-15.863-1.442-31.846-4.446-47.589l-101.907 23.554-2.764-11.657zM477.69 189.927c-4.687 0.601-9.494 1.322-14.060 2.283l-1.202 0.24c-10.335 2.043-20.67 4.687-30.764 7.931l-1.923 0.601c-4.206 1.442-8.412 2.884-12.618 4.567l-2.644 1.082c-4.446 1.803-8.773 3.725-13.82 6.009-4.807 2.283-9.494 4.687-14.421 7.451-4.446 2.524-8.893 5.167-13.219 7.931l-1.082 0.721c-32.327 20.79-59.246 48.069-79.795 81.117-36.773 58.885-48.31 128.466-32.687 196.003s56.602 124.981 115.487 161.754c47.228 29.563 102.388 43.142 158.269 38.576l-12.498-53.838c-41.34 1.803-81.958-9.013-116.929-30.885-46.387-28.962-78.834-74.388-91.212-127.865s-3.245-108.397 25.717-154.904c37.735-60.447 102.869-96.499 174.252-96.499 38.335 0 75.83 10.695 108.397 31.125 35.451 22.112 62.731 53.597 79.194 91.572l53.838-12.498c-3.846-9.734-8.292-19.348-13.459-28.842l-0.721-1.202c-2.403-4.567-5.167-8.893-7.811-13.099-2.283-3.725-4.807-7.331-7.331-10.816-1.562-2.283-3.125-4.446-4.807-6.61-7.21-9.494-15.142-18.627-23.554-27.159l-1.923-1.923c-4.687-4.567-9.614-9.133-14.781-13.459-1.682-1.442-3.485-2.884-5.288-4.326-3.725-3.004-7.451-5.768-11.296-8.532-3.004-2.163-6.009-4.206-9.133-6.249l-1.682-1.082c-1.803-1.202-3.605-2.403-5.768-3.605-5.648-3.365-11.537-6.73-18.266-9.974-2.043-1.082-4.206-2.043-6.249-3.125-2.524-1.202-5.047-2.283-7.571-3.485-2.764-1.202-5.528-2.283-8.172-3.365-3.605-1.442-7.21-2.644-10.816-3.966-2.764-0.961-5.408-1.803-8.292-2.644-2.403-0.721-4.927-1.442-7.331-2.043-2.764-0.721-5.408-1.442-8.172-2.043l-2.283-0.481c-1.562-0.361-3.245-0.721-4.807-1.082-4.567-0.961-9.133-1.682-13.7-2.403-1.923-0.24-3.846-0.481-5.648-0.721l-1.562-0.24c-2.884-0.361-5.889-0.721-8.773-0.961-2.403-0.24-4.807-0.361-7.090-0.481-4.086-0.24-8.292-0.361-12.378-0.481h-3.245c-5.167 0-10.335 0-15.502 0.361l-2.884 0.24c-4.446 0.361-8.773 0.721-13.219 1.322l-2.764 0.361zM750.365 316.35v0s0 0 0 0v0zM494.395 150.029v0s0 0 0 0zM687.634 206.751s0 0 0 0v0s0 0 0 0zM787.979 696.94c6.97 0 13.82 2.644 19.108 7.931l52.636 52.636c0.841 0.841 1.562 1.803 2.163 2.764 16.824-9.974 35.692-15.022 54.559-15.022 27.52 0 54.919 10.455 75.95 31.486 41.941 41.941 41.941 109.959 0 151.9-20.91 20.91-48.43 31.486-75.95 31.486s-54.919-10.455-75.95-31.486c-35.451-35.451-40.739-89.289-16.464-130.509-0.961-0.721-1.923-1.322-2.764-2.163l-52.636-52.636c-10.575-10.575-10.575-27.64 0-38.215 5.288-5.288 12.138-7.931 19.108-7.931zM874.624 894.505c11.176 11.176 26.078 17.425 41.941 17.425s30.764-6.129 41.941-17.425c23.073-23.073 23.073-60.808 0-83.881-11.176-11.176-26.078-17.425-41.941-17.425s-30.764 6.129-41.941 17.425c-23.073 23.073-23.073 60.808 0 83.881zM107.435 730.709c18.867 0 37.855 5.047 54.559 15.022 0.721-0.961 1.322-1.923 2.163-2.764l52.636-52.636c5.288-5.288 12.258-7.931 19.108-7.931s13.82 2.644 19.108 7.931c10.575 10.575 10.575 27.64 0 38.215l-52.636 52.636c-0.841 0.841-1.803 1.562-2.764 2.163 24.395 41.22 18.987 95.178-16.464 130.509-20.91 20.91-48.43 31.486-75.95 31.486s-54.919-10.455-75.95-31.486c-41.941-41.941-41.941-109.959 0-151.9 20.91-20.91 48.43-31.486 75.95-31.486zM65.495 880.084c11.176 11.176 26.078 17.425 41.941 17.425s30.764-6.129 41.941-17.425c23.073-23.073 23.073-60.808 0-83.881-11.176-11.176-26.078-17.425-41.941-17.425s-30.764 6.129-41.941 17.425c-11.176 11.176-17.425 26.078-17.425 41.941s6.129 30.764 17.425 41.941zM902.024 150.75c-18.987 0-37.855-5.047-54.559-15.022-0.721 0.961-1.322 1.923-2.163 2.764l-52.636 52.636c-10.575 10.575-27.64 10.575-38.215 0s-10.575-27.64 0-38.215l52.636-52.636c0.841-0.841 1.803-1.562 2.764-2.163-24.395-41.22-18.987-95.178 16.464-130.509 20.91-20.91 48.43-31.486 75.95-31.486s54.919 10.455 75.95 31.486c41.941 41.941 41.941 109.959 0 151.9-20.91 20.91-48.43 31.486-75.95 31.486zM943.964 1.374c-11.176-11.176-26.078-17.425-41.941-17.425s-30.764 6.129-41.941 17.425c-11.176 11.176-17.425 26.078-17.425 41.941s6.129 30.764 17.425 41.941c11.176 11.176 26.078 17.425 41.941 17.425s30.764-6.129 41.941-17.425 17.425-26.078 17.425-41.941-6.129-30.764-17.425-41.941zM221.72 196.056l-52.636-52.636c-0.841-0.841-1.562-1.803-2.163-2.764-16.824 9.974-35.692 15.022-54.559 15.022-27.52 0-54.919-10.455-75.95-31.486-41.941-41.941-41.941-109.959 0-151.9 20.91-20.91 48.43-31.486 75.95-31.486s54.919 10.455 75.95 31.486c35.451 35.451 40.739 89.289 16.464 130.509 0.961 0.721 1.923 1.322 2.764 2.163l52.636 52.636c10.575 10.575 10.575 27.64 0 38.215s-27.64 10.575-38.215 0zM154.183 6.422c-11.176-11.176-26.078-17.425-41.941-17.425s-30.764 6.129-41.941 17.425-17.425 26.078-17.425 41.941 6.129 30.764 17.425 41.941c11.176 11.176 26.078 17.425 41.941 17.425s30.764-6.129 41.941-17.425c11.176-11.176 17.425-26.078 17.425-41.941s-6.129-30.764-17.425-41.941z" />
<glyph unicode="&#xe961;" glyph-name="carlamini" d="M512.066 609.408c-89.043 0-161.474-72.431-161.474-161.474s72.431-161.474 161.474-161.474 161.474 72.431 161.474 161.474-72.431 161.474-161.474 161.474zM616.128 447.934c0-57.413-46.648-104.061-104.061-104.061s-104.061 46.648-104.061 104.061 46.648 104.061 104.061 104.061 104.061-46.648 104.061-104.061zM512.066 960c-282.414 0-512.066-229.652-512.066-512.066s210.515-493.992 480.569-511.003h1.329c9.968-0.665 19.935-1.063 31.099-1.063 1.063 0 2.126 0 3.19 0h2.392c7.974 0.133 15.815 0.399 23.656 0.93 4.519 0.266 9.17 0.665 13.689 1.063 5.715 0.532 11.429 1.063 18.207 1.861 4.253 0.532 8.639 1.063 12.891 1.595 7.974 1.196 15.815 2.525 23.656 4.12 4.917 0.93 9.702 1.994 14.486 3.19 6.645 1.462 13.29 3.057 19.802 4.784 3.987 1.063 8.107 2.259 12.094 3.455 7.177 2.126 14.087 4.386 21.131 6.778l3.19 1.063c1.728 0.532 3.455 1.196 5.183 1.728 9.17 3.323 18.473 7.044 28.441 11.429 1.994 0.797 3.854 1.728 5.848 2.658l1.861 0.797c8.107 3.721 16.214 7.575 24.188 11.695l5.582 2.791c9.569 5.183 19.138 10.632 29.105 16.745l1.196 0.665c1.329 0.797 2.525 1.595 3.854 2.525l2.658 1.728c4.12 2.658 8.107 5.316 12.094 7.974 3.455 2.392 6.778 4.784 10.499 7.442 3.057 2.259 6.246 4.519 9.303 6.778 4.12 3.057 8.107 6.379 13.157 10.366 1.994 1.595 3.854 3.19 5.848 4.784 4.386 3.721 8.771 7.442 13.024 11.297l5.183 4.652c4.519 4.12 8.904 8.24 13.157 12.626l4.519 4.519c4.253 4.253 8.373 8.506 12.36 12.891l5.050 5.582c3.588 3.987 7.177 8.107 10.499 12.227 2.259 2.658 4.386 5.316 6.512 7.974 2.658 3.323 5.316 6.645 7.841 9.968 3.057 3.987 5.981 7.974 9.303 12.493l4.12 5.715c3.987 5.715 7.841 11.562 12.36 18.473 52.097 82 79.74 176.891 79.74 274.174 0.133 282.946-229.52 512.598-511.801 512.598zM317.766 37.137c-8.373 3.987-16.745 8.24-25.251 13.024-7.841 4.386-15.549 8.904-23.125 13.822l-1.861 1.196c-56.483 36.415-103.397 83.993-139.28 141.539-64.058 102.732-84.392 224.204-57.147 342.086s98.878 218.223 201.61 282.281c72.165 45.053 154.962 68.843 239.487 68.843v0c17.543 0 35.086-1.063 52.496-3.057l-27.245-117.617c-71.501 5.316-141.406-12.094-201.61-49.572-75.488-47.18-128.116-120.94-148.317-207.857-20.068-86.917-5.183-176.359 41.864-251.847 61.267-98.214 167.322-156.956 283.477-156.956 62.33 0 123.199 17.41 176.226 50.502 60.869 38.010 106.852 93.030 133.167 159.215l117.617-27.245c-7.708-22.062-17.277-43.591-28.308-64.191l-1.861-3.19c-4.253-7.841-9.037-15.416-13.689-22.992-4.12-6.379-8.24-12.758-12.626-18.872-2.791-3.854-5.449-7.708-8.373-11.562-12.626-16.613-26.314-32.561-40.933-47.313l-3.455-3.323c-8.107-7.974-16.745-15.948-25.783-23.523-3.057-2.525-5.981-5.050-9.17-7.442-6.512-5.183-13.024-10.1-19.802-14.885-5.183-3.721-10.499-7.442-15.948-10.898l-1.861-1.196c-3.455-2.259-7.044-4.519-10.898-7.044-9.835-5.981-20.201-11.695-31.896-17.543-3.721-1.861-7.31-3.588-11.031-5.316-4.386-1.994-8.771-4.12-13.157-5.981-4.784-1.994-9.569-3.987-14.353-5.848-6.246-2.392-12.493-4.784-18.872-6.911-4.784-1.595-9.569-3.19-14.486-4.652-4.253-1.329-8.639-2.525-12.891-3.721-4.784-1.329-9.436-2.392-14.22-3.588l-3.323-0.797c-3.057-0.665-5.981-1.462-9.17-2.126-7.974-1.595-15.948-3.057-23.922-4.253-3.057-0.532-6.113-0.797-9.17-1.196l-3.323-0.399c-5.050-0.665-10.233-1.196-15.284-1.595-4.12-0.399-8.24-0.665-12.36-0.93-7.177-0.399-14.353-0.665-21.663-0.797h-5.715c-9.037 0-18.074 0.133-27.112 0.665l-5.050 0.399c-7.708 0.532-15.416 1.196-22.992 2.126l-4.917 0.665c-8.24 1.063-16.48 2.392-24.587 3.987l-2.126 0.399c-18.074 3.455-36.016 8.107-53.692 13.822l-3.323 1.063c-7.442 2.525-14.619 5.050-22.46 8.24l-4.12 1.595c-7.708 3.19-15.416 6.512-22.859 9.968l-1.329 0.532zM781.722 384.407c-16.613-72.032-60.204-133.034-122.667-172.106-43.857-27.378-94.227-41.864-145.792-41.864-96.22 0-184.067 48.509-234.836 129.844-80.671 129.179-41.199 299.957 88.113 380.628 43.857 27.378 94.227 41.864 145.792 41.864 20.998 0 42.13-2.392 62.729-7.177l6.512-1.462 40.402 174.897c203.338-50.502 344.877-230.981 344.877-441.097 0-32.428-3.588-64.988-10.632-97.15l-172.904 40.003-1.462-6.512z" />
<glyph unicode="&#xe962;" glyph-name="chronos" horiz-adv-x="1542" d="M739.818 715.74c-83.119 0-162.233-46.231-228.85-133.476l-12.377-16.26 12.377-16.138c66.616-87.366 145.731-133.476 228.85-133.476s162.112 46.11 228.85 133.476l12.377 16.26-12.377 16.26c-66.738 87.366-145.852 133.476-228.85 133.476zM913.215 566.005c-52.905-62.976-112.847-96.224-173.397-96.224s-120.371 33.248-173.397 96.224c52.905 62.976 112.726 96.224 173.397 96.224s120.371-33.248 173.397-96.345zM738.848 653.734c-48.901 0-88.701-39.8-88.701-88.701s39.8-88.701 88.701-88.701 88.701 39.8 88.701 88.701-39.8 88.701-88.701 88.701zM774.158 565.034c0-19.415-15.774-35.31-35.31-35.31s-35.31 15.774-35.31 35.31 15.774 35.31 35.31 35.31 35.31-15.774 35.31-35.31zM1151.166 526.447l-18.444 11.891c0.607 9.222 1.092 18.444 1.092 27.666 0 217.565-176.43 393.995-393.995 393.995s-393.995-176.43-393.995-393.995c0-66.616 16.624-129.35 45.746-184.439l-44.411-54.604-71.349 58.123c-8.13 6.674-18.808 8.251-28.151 5.46-7.523-0.607-14.682-3.762-20.143-9.829l-219.628-242.197c-11.285-12.377-10.314-31.549 2.063-42.834 5.824-5.218 13.105-7.887 20.385-7.887 8.251 0 16.502 3.398 22.448 9.95l203.732 224.603 70.135-57.030c2.791-2.305 5.946-4.004 9.101-5.096 5.096-3.398 10.921-5.096 16.624-5.096 8.858 0 17.595 3.762 23.54 11.163l49.993 61.399c27.423-36.038 60.913-67.223 98.893-91.977l-67.951-117.58h-30.457c-50.357 0-91.127-40.771-91.127-91.127v0c0-50.357 40.771-91.127 91.127-91.127h625.272c50.357 0 91.127 40.771 91.127 91.127v0c0 50.357-40.771 91.127-91.127 91.127h-22.569l-69.771 120.856c80.449 54.118 139.664 137.237 163.083 234.31 3.883-1.699 7.887-2.791 11.891-2.791 9.95 0 19.657 4.854 25.482 13.833 9.101 14.076 5.096 32.884-8.979 41.984zM1082.365 27.127c0-16.745-13.59-30.457-30.457-30.457h-625.272c-16.745 0-30.457 13.59-30.457 30.457s13.59 30.457 30.457 30.457h625.272c16.745 0 30.457-13.59 30.457-30.457zM963.087 118.255h-439.62l51.934 89.793c50.114-23.055 105.81-36.038 164.539-36.038s118.551 13.833 169.999 38.465l53.269-92.341zM739.818 232.801c-183.832 0-333.325 149.493-333.325 333.325s149.493 333.203 333.325 333.203 333.325-149.493 333.325-333.325-149.493-333.325-333.325-333.325zM1224.699 483.492l-2.548-2.912-3.276 2.063c-14.076 9.101-32.884 5.096-41.984-8.979s-5.096-32.884 9.101-41.984l47.687-30.821 37.009 43.198c10.921 12.741 9.465 31.913-3.276 42.834s-31.913 9.465-42.712-3.276zM1318.132 592.457l-35.917-41.984c-10.921-12.741-9.465-31.913 3.276-42.712 5.703-4.854 12.741-7.28 19.779-7.28 8.494 0 17.109 3.64 23.055 10.557l35.917 41.984c10.921 12.741 9.465 31.913-3.276 42.712-12.741 10.921-31.913 9.465-42.834-3.276zM1411.564 701.543l-35.917-41.984c-10.921-12.741-9.465-31.913 3.276-42.834 5.703-4.854 12.741-7.28 19.779-7.28 8.494 0 17.109 3.64 23.055 10.557l35.917 41.984c10.921 12.741 9.465 31.913-3.276 42.834s-31.913 9.465-42.834-3.276zM1531.571 794.976c-12.741 10.921-31.913 9.465-42.834-3.276l-19.779-23.055c-10.921-12.741-9.465-31.913 3.276-42.834 5.703-4.854 12.741-7.28 19.779-7.28 8.494 0 17.109 3.64 23.055 10.557l19.779 23.055c10.921 12.741 9.465 31.913-3.276 42.834z" />
<glyph unicode="&#xe963;" glyph-name="chronosapi" horiz-adv-x="1542" d="M1151.166 526.447l-18.444 11.891c0.607 9.222 1.092 18.444 1.092 27.666 0 217.565-176.43 393.995-393.995 393.995s-393.995-176.43-393.995-393.995c0-66.616 16.624-129.35 45.746-184.439l-44.411-54.604-71.349 58.123c-8.13 6.674-18.808 8.373-28.151 5.46-7.402-0.607-14.682-3.883-20.143-9.829l-219.628-242.197c-11.285-12.377-10.314-31.549 2.063-42.834 5.824-5.218 13.105-7.887 20.385-7.887 8.251 0 16.502 3.398 22.448 9.95l203.732 224.603 70.135-57.030c2.791-2.305 5.946-4.004 9.222-5.096 5.096-3.398 10.921-5.096 16.624-5.096 8.858 0 17.595 3.762 23.54 11.163l49.993 61.399c27.423-36.038 60.913-67.223 98.893-91.977l-67.951-117.58h-30.457c-50.357 0-91.127-40.771-91.127-91.127s40.771-91.127 91.127-91.127h625.272c50.357 0 91.127 40.771 91.127 91.127s-40.771 91.127-91.127 91.127h-22.569l-69.771 120.856c80.449 54.118 139.664 137.237 163.083 234.31 3.883-1.699 7.887-2.791 11.891-2.791 9.95 0 19.657 4.854 25.482 13.833 9.101 14.076 5.096 32.884-9.101 41.984zM1082.365 27.127c0-16.745-13.59-30.457-30.457-30.457h-625.272c-16.745 0-30.457 13.59-30.457 30.457s13.59 30.457 30.457 30.457h625.272c16.745 0 30.457-13.59 30.457-30.457zM963.087 118.255h-439.62l51.934 89.793c50.114-23.055 105.81-36.038 164.539-36.038s118.551 13.833 169.999 38.465l53.269-92.341zM739.818 232.801c-183.832 0-333.325 149.493-333.325 333.325s149.493 333.203 333.325 333.203 333.325-149.493 333.325-333.325-149.493-333.325-333.325-333.325zM1224.699 483.492l-2.548-2.912-3.276 2.063c-14.076 9.101-32.884 5.096-41.984-8.979s-5.096-32.884 8.979-41.984l47.809-30.821 37.009 43.198c10.921 12.741 9.465 31.913-3.276 42.834s-31.913 9.465-42.712-3.276zM1411.564 701.543l-35.917-41.984c-10.921-12.741-9.465-31.913 3.276-42.712 5.703-4.854 12.741-7.28 19.779-7.28 8.494 0 17.109 3.64 23.055 10.557l35.917 41.984c10.921 12.741 9.465 31.913-3.276 42.712-12.741 10.921-31.913 9.465-42.834-3.276zM1318.132 592.457l-35.917-41.984c-10.921-12.741-9.465-31.913 3.276-42.834 5.703-4.854 12.741-7.28 19.779-7.28 8.494 0 17.109 3.64 23.055 10.557l35.917 41.984c10.921 12.741 9.465 31.913-3.276 42.834s-31.913 9.465-42.834-3.276zM1531.571 794.976c-12.741 10.921-31.913 9.465-42.834-3.276l-19.779-23.055c-10.921-12.741-9.465-31.913 3.276-42.834 5.703-4.854 12.741-7.28 19.779-7.28 8.494 0 17.109 3.64 23.055 10.557l19.779 23.055c10.921 12.741 9.465 31.913-3.276 42.834zM588.263 640.993l-72.926-177.28h47.687l12.984 34.704h69.893l12.984-34.704h48.658l-73.169 177.28h-45.988zM589.719 535.062l21.235 56.666 21.235-56.666h-42.348zM835.193 633.106c-11.042 5.218-24.026 7.887-39.193 7.887h-75.232v-177.28h46.716v46.352h28.515c15.168 0 28.151 2.67 39.193 8.009s19.415 12.862 25.36 22.569 8.858 21.356 8.858 35.068-2.912 24.996-8.858 34.825-14.318 17.473-25.36 22.691zM815.171 556.54c-4.854-4.49-12.134-6.674-21.963-6.674h-25.724v51.691h25.724c9.707 0 17.109-2.305 21.963-6.916s7.28-10.921 7.28-18.929-2.427-14.682-7.28-19.172zM892.345 640.993h46.716v-177.28h-46.716v177.28z" />
<glyph unicode="&#xe964;" glyph-name="codespaces" horiz-adv-x="1199" d="M1065.309 172.264v686.759c0 55.767-45.21 100.977-100.977 100.977h-863.355c-55.767 0-100.977-45.21-100.977-100.977v-686.759c0-55.767 45.21-100.977 100.977-100.977h863.355c55.767 0 100.977 45.21 100.977 100.977zM57.373 172.264v686.759c0 23.982 19.507 43.604 43.604 43.604h863.355c23.982 0 43.604-19.507 43.604-43.604v-686.759c0-23.982-19.507-43.604-43.604-43.604h-863.355c-23.982 0-43.604 19.507-43.604 43.604zM1169.843 758.849c-15.835 0-28.687-12.852-28.687-28.687v-664.498c0-39.932-32.359-72.29-72.29-72.29h-830.766c-15.835 0-28.687-12.852-28.687-28.687v0c0-15.835 12.852-28.687 28.687-28.687h830.766c71.602 0 129.664 58.062 129.664 129.664v664.498c0 15.835-12.852 28.687-28.687 28.687zM642.467 720.753c-10.557 10.557-30.752 10.557-41.309 0-11.36-11.36-11.36-29.949 0-41.309l163.629-163.629-163.629-163.629c-5.508-5.508-8.606-12.852-8.606-20.654s2.983-15.147 8.606-20.654c5.508-5.508 12.852-8.606 20.654-8.606s15.147 3.098 20.654 8.606l184.283 184.283c5.508 5.508 8.606 12.852 8.606 20.654s-2.983 15.147-8.606 20.654l-184.283 184.283zM300.636 515.815l163.629 163.629c11.36 11.36 11.36 29.949 0 41.309-10.557 10.557-30.752 10.557-41.309 0l-184.283-184.283c-5.508-5.508-8.606-12.852-8.606-20.654s3.098-15.147 8.606-20.654l184.283-184.283c5.508-5.508 12.852-8.606 20.654-8.606s15.147 3.098 20.654 8.606c5.508 5.508 8.606 12.852 8.606 20.654s-2.983 15.147-8.606 20.654l-163.629 163.629z" />
<glyph unicode="&#xe965;" glyph-name="corporatedatacatalogue" horiz-adv-x="853" d="M270.462 551.843h155.106c38.49 0 72.856 25.202 84.999 61.172h20.276c11.914-36.428 46.509-61.974 85.457-61.974 49.602 0 89.925 40.323 89.925 89.925s-40.323 89.925-89.925 89.925c-38.948 0-73.544-25.546-85.457-61.974h-20.047c-11.799 36.428-46.28 61.974-85.228 61.974h-155.106c-49.373 0-89.581-40.209-89.581-89.581s40.209-89.581 89.581-89.581zM236.898 641.425c0 18.558 15.121 33.564 33.564 33.564h155.106c18.558 0 33.564-15.121 33.564-33.564s-15.121-33.564-33.564-33.564h-155.106c-18.558 0-33.564 15.121-33.564 33.564zM582.394 641.081c0 18.787 15.236 34.023 34.023 34.023s34.023-15.236 34.023-34.023-15.236-34.023-34.023-34.023-34.023 15.236-34.023 34.023zM259.236 329.494c38.948 0 73.544 25.546 85.457 61.974h20.047c11.799-36.428 46.28-61.974 85.228-61.974h155.106c49.373 0 89.581 40.209 89.581 89.581s-40.209 89.581-89.581 89.581h-155.106c-38.49 0-72.856-25.202-84.885-61.172h-20.391c-11.914 36.428-46.509 61.974-85.457 61.974-49.602 0-89.925-40.323-89.925-89.925s40.323-89.925 89.925-89.925zM225.214 419.419c0 18.787 15.236 34.023 34.023 34.023s34.023-15.236 34.023-34.023-15.236-34.023-34.023-34.023-34.023 15.236-34.023 34.023zM416.405 419.075c0 18.558 15.121 33.564 33.564 33.564h155.106c18.558 0 33.564-15.121 33.564-33.564s-15.121-33.564-33.564-33.564h-155.106c-18.558 0-33.564 15.121-33.564 33.564zM122.802 123.525c176.299 0 352.483 0 528.668 0h201.959s0 812.647 0 812.647l-0.229 1.146c-6.759 19.932-22.567 22.567-35.741 22.567h-0.229c-148.92-0.229-297.726-0.229-446.647-0.229h-244.459c-8.477 0-18.443-0.344-27.837-2.291-59.683-12.372-98.288-60.714-98.288-122.917 0-257.632 0-515.379 0.115-773.012 0-10.768 0.916-20.276 2.864-28.868 12.83-58.652 60.828-96.569 122.115-96.569 93.476 0 186.952 0 280.429 0 143.88 0 287.875 0 431.869 0 2.978 0 5.957 0.344 8.935 0.573l7.217 0.687v53.268h-107.566c-207.687 0-415.374 0-623.175 0-38.719 0-67.816 28.639-67.816 66.556s29.211 66.441 67.816 66.441zM54.986 160.526v43.76c0 211.353 0 422.82 0 634.172 0 32.533 20.963 58.194 50.862 64.838h691.907v-725.014h-602.441c-22.338 0-42.271 0-58.766 0h-0.458c-1.146 0-2.406 0-3.551 0h-2.062c-23.713-0.458-50.404-3.78-75.262-20.047 0 0.802-0.115 1.489-0.115 2.177z" />
<glyph unicode="&#xe966;" glyph-name="data" horiz-adv-x="1150" d="M1150.496 769.053v0c0 105.477-85.471 190.947-190.947 190.947h-768.601c-105.477 0-190.947-85.471-190.947-190.947v0c0-67.49 35.075-126.623 87.876-160.558-52.802-33.935-87.876-93.068-87.876-160.558v0c0-67.49 35.075-126.623 87.876-160.558-52.802-33.935-87.876-93.068-87.876-160.558 0-105.477 85.471-190.947 190.947-190.947h768.728c105.477 0 190.947 85.471 190.947 190.947 0 67.49-35.075 126.623-87.876 160.558 52.802 33.935 87.876 93.068 87.876 160.558v0c0 67.49-35.075 126.623-87.876 160.558 52.802 33.935 87.876 93.068 87.876 160.558zM959.549-0.815h-768.601c-70.402 0-127.636 57.234-127.636 127.636s57.234 127.636 127.636 127.636h768.728c70.402 0 127.636-57.234 127.636-127.636s-57.234-127.636-127.636-127.636zM959.549 320.301h-768.601c-70.402 0-127.636 57.234-127.636 127.636s57.234 127.636 127.636 127.636h768.728c70.402 0 127.636-57.234 127.636-127.636s-57.234-127.636-127.636-127.636zM959.549 641.417h-768.601c-70.402 0-127.636 57.234-127.636 127.636s57.234 127.636 127.636 127.636h768.728c70.402 0 127.636-57.234 127.636-127.636s-57.234-127.636-127.636-127.636zM200.824 220.142c-51.536 0-93.321-41.786-93.321-93.321s41.786-93.321 93.321-93.321 93.321 41.786 93.321 93.321-41.786 93.321-93.321 93.321zM200.824 96.811c-16.588 0-30.010 13.422-30.010 30.010s13.422 30.010 30.010 30.010 30.010-13.422 30.010-30.010-13.422-30.010-30.010-30.010zM200.824 541.258c-51.536 0-93.321-41.786-93.321-93.321v0c0-51.536 41.786-93.321 93.321-93.321s93.321 41.786 93.321 93.321v0c0 51.536-41.786 93.321-93.321 93.321zM200.824 417.927c-16.588 0-30.010 13.422-30.010 30.010s13.422 30.010 30.010 30.010 30.010-13.422 30.010-30.010-13.422-30.010-30.010-30.010zM200.824 862.374c-51.536 0-93.321-41.786-93.321-93.321v0c0-51.536 41.786-93.321 93.321-93.321s93.321 41.786 93.321 93.321v0c0 51.536-41.786 93.321-93.321 93.321zM200.824 739.043c-16.588 0-30.010 13.422-30.010 30.010s13.422 30.010 30.010 30.010 30.010-13.422 30.010-30.010-13.422-30.010-30.010-30.010z" />
<glyph unicode="&#xe967;" glyph-name="datagovernance" horiz-adv-x="1237" d="M396.943 442.042h198.414c47.318 0 89.315 32.741 101 78.324h41.418c11.569-46.162 53.797-79.25 101.579-79.25 57.731 0 104.818 46.971 104.818 104.818s-46.971 104.818-104.818 104.818c-47.897 0-90.009-33.088-101.579-79.25h-41.187c-11.338 46.162-53.45 79.25-101.231 79.25h-198.414c-57.499 0-104.355-46.74-104.355-104.355s46.74-104.355 104.355-104.355zM343.609 546.397c0 29.386 23.948 53.335 53.335 53.335h198.414c29.386 0 53.335-23.948 53.335-53.335s-23.948-53.335-53.335-53.335h-198.414c-29.386 0-53.335 23.948-53.335 53.335zM839.469 599.732c29.617 0 53.797-24.18 53.797-53.797s-24.18-53.797-53.797-53.797-53.797 24.18-53.797 53.797 24.18 53.797 53.797 53.797zM1209.456 581.915c-15.156 0-27.535-12.379-27.535-27.535 0-310.752-252.79-563.541-563.541-563.541s-563.426 252.905-563.426 563.657c0 15.156-12.379 27.535-27.535 27.535s-27.535-12.379-27.535-27.535c0-341.063 277.432-618.496 618.496-618.496s618.496 277.432 618.496 618.496c0 15.156-12.379 27.535-27.535 27.535zM255.798 184.972c7.289 0 14.23 2.892 19.436 8.099 10.759 10.759 10.759 28.113 0 38.873-184.531 184.531-179.324 490.192 11.801 681.201 10.759 10.759 10.759 28.113 0 38.873s-28.113 10.759-38.873 0c-212.528-212.528-217.734-553.013-11.801-758.947 5.206-5.206 12.032-8.099 19.436-8.099zM961.641 231.943c-10.759-10.759-10.759-28.113 0-38.873 5.206-5.206 12.148-8.099 19.436-8.099s14.23 2.892 19.436 8.099c205.934 206.049 200.728 546.419-11.801 758.947-10.759 10.759-28.113 10.759-38.873 0s-10.759-28.113 0-38.873c191.009-191.009 196.331-496.671 11.801-681.201z" />
<glyph unicode="&#xe968;" glyph-name="datagovernancesocialintranet" horiz-adv-x="1237" d="M420.313 356.313h79.25c24.064 0 47.666 8.446 66.292 23.601 17.47 14.23 29.849 33.898 35.402 55.648h34.361c5.438-21.75 17.932-41.418 35.402-55.648 18.627-15.271 42.228-23.601 66.292-23.601h79.25c37.369 0 72.077 20.131 90.819 52.409 18.627 32.278 18.627 72.54 0 104.818s-53.45 52.409-90.819 52.409h-79.25c-24.064 0-47.666-8.446-66.292-23.601-17.47-14.23-29.849-33.898-35.402-55.648h-34.361c-5.438 21.75-17.932 41.418-35.402 55.648-18.627 15.271-42.228 23.601-66.292 23.601h-79.25c-37.369 0-72.077-20.131-90.819-52.409-18.627-32.278-18.627-72.54 0-104.818s53.45-52.409 90.819-52.409zM517.033 473.973c-4.512-7.867-4.512-17.701 0-25.568s13.073-12.842 22.213-12.842h7.404c-3.934-7.173-9.371-13.42-16.081-18.164-9.024-6.479-19.784-9.834-30.89-9.95h-79.25c-19.089 0-36.906 10.297-46.509 26.841s-9.603 37.137 0 53.682c9.603 16.544 27.304 26.841 46.509 26.841h79.25c11.107 0 21.866-3.471 30.89-9.834 6.71-4.743 12.263-10.991 16.081-18.164h-7.404c-9.14 0-17.585-4.859-22.213-12.842zM719.843 448.405c4.512 7.867 4.512 17.701 0 25.568s-13.073 12.842-22.213 12.842h-7.404c3.934 7.173 9.371 13.42 16.081 18.164 9.024 6.479 19.784 9.834 30.89 9.834h79.25c19.089 0 36.906-10.297 46.509-26.841s9.603-37.137 0-53.682c-9.603-16.544-27.304-26.841-46.509-26.841h-79.25c-11.107 0-21.75 3.471-30.89 9.95-6.71 4.743-12.263 10.991-16.081 18.164h7.404c9.14 0 17.585 4.859 22.213 12.842zM530.8 608.871v0c6.826 0 13.305 2.661 18.048 7.52s7.52 11.338 7.52 18.048c0 14.346 5.553 27.766 15.734 37.947s23.601 15.734 37.947 15.734h115.115l-15.156-16.428c-4.628-4.975-7.057-11.685-6.826-18.511 0.347-6.826 3.355-13.305 8.33-17.817 4.975-4.628 11.801-7.173 18.511-6.826 6.826 0.231 13.305 3.355 17.817 8.33l31.353 34.129c10.759 11.685 24.18 26.262 24.18 42.691s-13.42 31.006-24.18 42.691l-31.353 34.129c-6.247 6.71-15.619 9.603-24.527 7.751-8.908-1.967-16.197-8.677-18.974-17.354s-0.578-18.28 5.669-25.105l15.156-16.428h-115.115c-27.998 0-54.376-10.875-74.159-30.659s-30.659-46.162-30.659-74.159c0-6.826 2.661-13.305 7.52-18.048 4.859-4.859 11.222-7.52 18.048-7.52zM1209.456 581.915c-15.156 0-27.535-12.379-27.535-27.535 0-310.752-252.79-563.541-563.541-563.541s-563.426 252.905-563.426 563.657c0 15.156-12.379 27.535-27.535 27.535s-27.535-12.379-27.535-27.535c0-341.063 277.432-618.496 618.496-618.496s618.496 277.432 618.496 618.496c0 15.156-12.379 27.535-27.535 27.535zM255.798 184.972c7.289 0 14.23 2.892 19.436 8.099 10.759 10.759 10.759 28.113 0 38.873-184.531 184.531-179.324 490.192 11.801 681.201 10.759 10.759 10.759 28.113 0 38.873s-28.113 10.759-38.873 0c-212.528-212.528-217.734-553.013-11.801-758.947 5.206-5.206 12.032-8.099 19.436-8.099zM961.641 231.943c-10.759-10.759-10.759-28.113 0-38.873 5.206-5.206 12.148-8.099 19.436-8.099s14.23 2.892 19.436 8.099c205.934 206.049 200.728 546.419-11.801 758.947-10.759 10.759-28.113 10.759-38.873 0s-10.759-28.113 0-38.873c191.009-191.009 196.331-496.671 11.801-681.201z" />
<glyph unicode="&#xe969;" glyph-name="dataiku1" d="M511.95 960c-282.735 0-511.95-229.215-511.95-511.95s229.215-511.95 511.95-511.95 511.95 229.215 511.95 511.95-229.215 511.95-511.95 511.95zM511.95-13.887c-254.672 0-461.837 207.165-461.837 461.837s207.165 461.938 461.837 461.938 461.837-207.165 461.837-461.837-207.165-461.837-461.837-461.837zM766.421 699.515c-4.711-0.301-11.325 1.303-14.232 4.51-23.854 27.061-52.819 36.081-83.588 25.157-29.166-10.323-45.602-35.179-47.406-70.158-0.301-6.214-2.907-13.33-6.715-18.141-108.644-134.402-217.488-268.503-326.333-402.705-17.138-21.147-34.477-42.195-51.315-63.643-2.506-3.207-2.606-8.118-3.909-12.227 4.209 1.503 9.020 2.105 12.328 4.711 6.515 5.011 12.328 11.025 18.141 16.938 48.108 48.309 96.417 96.316 144.124 145.026 22.35 22.851 49.010 38.086 80.080 41.193 37.584 3.809 75.67 3.809 113.555 4.31 70.659 0.802 120.771 36.883 143.923 103.933 13.53 39.288 12.929 79.178 7.016 119.569-4.711 32.172-0.601 62.039 23.753 86.494 5.412 5.412 9.722 11.927 15.134 18.742-2.706 1.002-3.207 1.403-3.608 1.303-7.016-1.804-13.931-4.61-21.047-5.011zM694.56 654.313c-10.824 0.601-17.038 6.615-17.038 17.64 0 11.726 6.715 17.439 16.236 17.94 12.428-0.2 21.248-8.519 20.145-18.341-1.303-10.925-7.517-17.84-19.343-17.138zM546.127 311.143h244.549v38.186h-244.549v-38.186z" />
<glyph unicode="&#xe96a;" glyph-name="datamini" horiz-adv-x="1250" d="M1247.689 766.479v0c0 105.76-85.705 191.293-191.293 191.293h-862.875c-105.76 0.171-191.464-85.533-191.464-191.293v0c0-65.307 32.739-122.901 82.619-157.354-49.88-34.453-82.619-92.047-82.619-157.354s35.31-127.186 88.447-161.125c-53.137-33.939-88.447-93.418-88.447-161.125 0-105.76 85.705-191.293 191.293-191.293h862.875c105.588 0 191.293 85.705 191.293 191.293 0 67.707-35.31 127.186-88.447 161.125 53.137 33.939 88.447 93.418 88.447 161.125s-32.739 122.901-82.619 157.354c49.88 34.453 82.619 92.047 82.619 157.354zM1056.396 6.792h-862.875c-67.707 0-122.729 55.022-122.729 122.729s55.022 122.729 122.729 122.729h862.875c67.707 0 122.729-55.022 122.729-122.729s-55.022-122.729-122.729-122.729zM1056.396 329.042h-862.875c-67.707 0-122.729 55.022-122.729 122.729s55.022 122.729 122.729 122.729h862.875c67.707 0 122.729-55.022 122.729-122.729s-55.022-122.729-122.729-122.729zM1056.396 643.75h-862.875c-67.707 0-122.729 55.022-122.729 122.729s55.022 122.729 122.729 122.729h862.875c67.707 0 122.729-55.022 122.729-122.729s-55.022-122.729-122.729-122.729z" />
</font>
</defs>
</svg>
