<svg width="105" height="39" viewBox="0 0 105 39" xmlns="http://www.w3.org/2000/svg" xmlns:xlink="http://www.w3.org/1999/xlink"><defs><path id="a" d="M.006.296H6.4v7.7H.006z"/><path id="c" d="M.428.296h6.395v7.7H.428z"/></defs><g fill="none" fill-rule="evenodd"><path d="M43.813 7.316h.62c.46 0 .82-.02 1.074-.061.582-.101 1.017-.394 1.31-.878.313-.514.468-1.143.468-1.89 0-.768-.173-1.406-.518-1.912-.311-.461-.753-.74-1.327-.833-.259-.04-.69-.062-1.294-.062h-.333v5.636zM42.627.663h1.558c.624 0 1.134.03 1.531.09.82.127 1.479.51 1.974 1.147.547.712.821 1.576.821 2.592 0 1.051-.28 1.931-.839 2.646-.506.65-1.196 1.03-2.07 1.134-.356.045-.882.07-1.58.07h-1.395V.661z" fill="#1C2126"/><g transform="translate(49.92 .345)"><mask id="b" fill="#fff"><use xlink:href="#a"/></mask><path d="M4.286 5.172L3.2 1.719 2.116 5.172h2.17zM2.622.295h1.152l2.627 7.7H5.169L4.6 6.197H1.806l-.58 1.798H.006l2.616-7.7z" fill="#1C2126" mask="url(#b)"/></g><path fill="#1C2126" d="M57.13.662h5.213v1.02h-2.019V8.34h-1.186V1.68H57.13z"/><g transform="translate(62.72 .345)"><mask id="d" fill="#fff"><use xlink:href="#c"/></mask><path d="M4.708 5.172L3.623 1.719 2.537 5.172h2.171zM3.043.295h1.154l2.626 7.7H5.592l-.569-1.798H2.228l-.58 1.798H.428l2.615-7.7z" fill="#1C2126" mask="url(#d)"/></g><path d="M75.298 3.514c.544-.436.815-.849.815-1.243a.571.571 0 0 0-.23-.483.73.73 0 0 0-.467-.153.78.78 0 0 0-.511.175.586.586 0 0 0-.232.477c0 .22.072.44.214.664.071.113.209.302.411.563zm-.209 1.345c-.24.187-.42.345-.545.472-.319.33-.479.672-.479 1.024 0 .322.12.594.36.815.256.232.6.35 1.03.35a1.62 1.62 0 0 0 1.238-.529L75.09 4.86zm2.482-.214h.911c.003.142.005.256.005.344 0 .625-.094 1.147-.281 1.562a3.135 3.135 0 0 1-.281.468l.985 1.32h-1.216l-.41-.605a2.34 2.34 0 0 1-.665.47c-.333.158-.728.237-1.186.237-.664 0-1.214-.168-1.648-.506-.526-.408-.788-.956-.788-1.641 0-.444.128-.843.382-1.199.214-.308.574-.664 1.08-1.069a15.305 15.305 0 0 1-.529-.72 1.76 1.76 0 0 1-.303-.974c0-.468.176-.851.529-1.147.33-.272.749-.41 1.255-.41.476 0 .863.125 1.163.378.338.288.507.673.507 1.157 0 .466-.162.885-.484 1.26a5.535 5.535 0 0 1-.698.652l1.43 1.946a2.09 2.09 0 0 0 .179-.494c.042-.21.063-.485.063-.827v-.202zM46.126 21.517l-1.085-3.453-1.087 3.453h2.172zM44.46 16.64h1.152l2.628 7.7h-1.233l-.567-1.799h-2.796l-.579 1.8h-1.22l2.615-7.701zm6.173.022h1.277l3.386 5.867v-5.867h1.124v7.68h-1.226l-3.43-5.857v5.856h-1.13zm12.381 4.855l-1.084-3.453-1.087 3.453h2.171zM61.35 16.64h1.154l2.627 7.7h-1.232l-.569-1.799h-2.795l-.58 1.8h-1.22l2.615-7.701zm6.172.022h1.221v6.654h3.313v1.025h-4.534zm4.514 0h1.344l1.715 3.308 1.693-3.308h1.328l-2.446 4.562v3.117h-1.182v-3.117zm6.97 0h5.214v1.02H82.2v6.66h-1.185v-6.66h-2.01zm7.607 7.678h1.198v-7.678h-1.198zm9.995-5.354h-1.051c-.188-.952-.717-1.428-1.586-1.428-.608 0-1.09.25-1.447.752-.386.549-.578 1.28-.578 2.2 0 .926.2 1.665.6 2.216.35.48.832.72 1.447.72.982 0 1.532-.615 1.647-1.845h1.08c-.04.69-.188 1.252-.443 1.687-.465.795-1.214 1.193-2.245 1.193-.927 0-1.688-.308-2.284-.923-.7-.72-1.051-1.732-1.051-3.037 0-1.414.391-2.481 1.175-3.201.581-.533 1.285-.8 2.11-.8.517 0 .983.113 1.395.34.727.394 1.138 1.1 1.231 2.126m7.34-.197h-1.147c-.027-.327-.124-.59-.293-.788-.248-.296-.603-.445-1.069-.445-.33 0-.613.084-.85.249-.27.187-.405.436-.405.747 0 .281.143.51.428.68.173.105.61.307 1.311.603.597.25 1.002.44 1.22.567.686.409 1.03 1.007 1.03 1.795 0 .754-.285 1.345-.855 1.772-.457.342-1.052.512-1.783.512-1.077 0-1.857-.349-2.34-1.047-.274-.393-.426-.92-.456-1.58h1.153c.041.48.173.843.393 1.092.297.333.72.5 1.272.5.405 0 .741-.099 1.007-.298a.894.894 0 0 0 .388-.754c0-.33-.166-.61-.5-.838-.18-.124-.602-.326-1.266-.607-.78-.334-1.305-.627-1.575-.878a1.837 1.837 0 0 1-.62-1.411c0-.716.284-1.27.85-1.66.458-.319 1-.478 1.632-.478.547 0 1.027.123 1.44.372.473.281.782.676.928 1.186.056.188.092.424.107.709" fill="#1C2126"/><text font-family="CorporateS-Demi, CorpoSDem" font-size="8.106" letter-spacing=".06" fill="#00ADEF"><tspan x="41.78" y="35.668">M</tspan> <tspan x="48.248" y="35.668" letter-spacing=".064">BC</tspan></text><text font-family="CorporateS-Demi, CorpoSDem" font-size="8.106" letter-spacing=".06" fill="#252C33"><tspan x="62.946" y="35.668">I</tspan> <tspan x="65.183" y="35.668" letter-spacing=".064"> FM</tspan></text><path stroke="#1C2126" stroke-width=".64" d="M1.682 27.944l14.783-8.55V2.322m14.783 25.622l-14.783-8.55V2.557"/><path d="M32.93 10.871a1.682 1.682 0 1 1-3.365 0 1.682 1.682 0 0 1 3.365 0m-14.783 8.523a1.682 1.682 0 1 1-3.364 0 1.682 1.682 0 0 1 3.364 0m14.783 8.55a1.682 1.682 0 1 1-3.365 0 1.682 1.682 0 0 1 3.365 0m-29.566 0a1.682 1.682 0 1 1-3.364 0 1.682 1.682 0 0 1 3.364 0m0-17.073a1.682 1.682 0 1 1-3.364 0 1.682 1.682 0 0 1 3.364 0m14.783-8.549a1.682 1.682 0 1 1-3.364 0 1.682 1.682 0 0 1 3.364 0m0 34.145a1.682 1.682 0 1 1-3.364 0 1.682 1.682 0 0 1 3.364 0" fill="#1C2126"/><path stroke="#1C2126" stroke-width=".64" d="M1.682 10.871l14.783 8.523v17.073L1.682 27.944z"/><path stroke="#1C2126" stroke-width=".64" d="M1.682 10.871l14.783-8.549 14.783 8.55-14.783 8.522z"/><path stroke="#1C2126" stroke-width=".64" d="M31.248 27.944V10.871l-14.783 8.523v17.072z"/></g></svg>